<svg id="svg" version="1.1" xmlns="http://www.w3.org/2000/svg" xmlns:xlink="http://www.w3.org/1999/xlink" width="400" height="320" viewBox="0, 0, 400,320"><g id="svgg"><path id="path0" d="M323.200 111.120 L 323.200 156.800 339.360 156.800 L 355.520 156.800 355.520 111.206 L 355.520 65.612 339.360 65.526 L 323.200 65.440 323.200 111.120 M345.920 92.646 L 345.920 97.933 339.280 97.846 L 332.640 97.760 332.552 92.560 L 332.464 87.360 339.192 87.360 L 345.920 87.360 345.920 92.646 M365.440 92.640 L 365.440 97.600 371.680 97.600 L 377.920 97.600 377.920 92.640 L 377.920 87.680 371.680 87.680 L 365.440 87.680 365.440 92.640 M387.200 92.640 L 387.200 97.600 393.600 97.600 L 400.000 97.600 400.000 92.640 L 400.000 87.680 393.600 87.680 L 387.200 87.680 387.200 92.640 M377.094 88.514 C 377.518 88.677,377.600 89.353,377.600 92.674 L 377.600 96.640 372.000 96.640 L 366.400 96.640 366.400 92.480 L 366.400 88.320 371.494 88.320 C 374.295 88.320,376.815 88.407,377.094 88.514 M399.040 92.480 L 399.040 96.640 393.600 96.640 L 388.160 96.640 388.160 92.480 L 388.160 88.320 393.600 88.320 L 399.040 88.320 399.040 92.480 M334.150 92.560 L 334.240 96.160 339.280 96.248 L 344.320 96.336 344.320 92.648 L 344.320 88.960 339.190 88.960 L 334.059 88.960 334.150 92.560 M127.680 116.159 L 127.680 133.438 76.240 133.520 L 24.800 133.602 76.240 133.681 L 127.680 133.760 127.680 171.844 L 127.680 209.929 138.160 209.844 L 148.640 209.760 148.725 200.402 L 148.810 191.043 178.325 190.962 L 207.840 190.880 207.923 173.520 L 208.006 156.160 224.328 156.160 L 240.651 156.160 240.565 173.600 C 240.490 188.930,240.538 191.039,240.960 191.033 C 256.887 190.790,270.679 184.796,282.963 172.780 L 285.125 170.665 285.043 152.292 L 284.960 133.920 262.814 133.838 L 240.669 133.756 240.574 139.358 C 240.522 142.440,240.588 144.961,240.720 144.960 C 240.852 144.960,240.960 147.405,240.960 150.394 L 240.960 155.829 224.320 155.914 L 207.680 156.000 207.680 153.360 C 207.680 151.908,207.788 150.720,207.920 150.720 C 208.052 150.720,208.119 146.906,208.070 142.243 L 207.980 133.766 224.070 133.677 L 240.160 133.588 223.920 133.594 L 207.680 133.600 207.680 116.240 L 207.680 98.880 167.680 98.880 L 127.680 98.880 127.680 116.159 M345.760 112.960 L 345.760 118.240 339.200 118.240 L 332.640 118.240 332.551 113.293 C 332.503 110.573,332.535 108.158,332.624 107.927 C 332.751 107.595,334.150 107.525,339.273 107.593 L 345.760 107.680 345.760 112.960 M365.440 112.960 L 365.440 118.080 371.680 118.080 L 377.920 118.080 377.920 112.960 L 377.920 107.840 371.680 107.840 L 365.440 107.840 365.440 112.960 M387.200 112.960 L 387.200 118.080 393.600 118.080 L 400.000 118.080 400.000 112.960 L 400.000 107.840 393.600 107.840 L 387.200 107.840 387.200 112.960 M377.600 112.960 L 377.600 117.120 372.000 117.120 L 366.400 117.120 366.400 112.960 L 366.400 108.800 372.000 108.800 L 377.600 108.800 377.600 112.960 M399.040 112.960 L 399.040 117.120 393.600 117.120 L 388.160 117.120 388.160 112.960 L 388.160 108.800 393.600 108.800 L 399.040 108.800 399.040 112.960 M334.218 109.542 C 334.129 109.774,334.098 111.466,334.148 113.302 L 334.240 116.640 339.200 116.640 L 344.160 116.640 344.250 112.880 L 344.340 109.120 339.360 109.120 C 335.535 109.120,334.342 109.218,334.218 109.542 M24.781 123.294 C 24.694 123.522,24.666 125.862,24.720 128.494 L 24.818 133.280 24.889 128.241 L 24.960 123.202 74.640 123.120 L 124.320 123.038 74.630 122.959 C 34.217 122.895,24.910 122.957,24.781 123.294 M153.920 128.480 L 153.920 133.760 148.480 133.760 L 143.040 133.760 143.040 128.480 L 143.040 123.200 148.480 123.200 L 153.920 123.200 153.920 128.480 M173.120 128.480 L 173.120 133.760 167.680 133.760 L 162.240 133.760 162.240 128.480 L 162.240 123.200 167.680 123.200 L 173.120 123.200 173.120 128.480 M192.320 128.480 L 192.320 133.760 187.040 133.760 L 181.760 133.760 181.760 128.480 L 181.760 123.200 187.040 123.200 L 192.320 123.200 192.320 128.480 M365.440 141.760 C 365.440 154.347,365.500 156.160,365.920 156.160 C 366.339 156.160,366.400 154.400,366.400 142.240 L 366.400 128.320 371.997 128.320 L 377.593 128.320 377.680 142.320 L 377.767 156.320 377.843 141.840 L 377.920 127.360 371.680 127.360 L 365.440 127.360 365.440 141.760 M345.920 133.280 L 345.920 138.560 339.200 138.560 L 332.480 138.560 332.480 133.280 L 332.480 128.000 339.200 128.000 L 345.920 128.000 345.920 133.280 M334.222 129.692 C 334.131 129.928,334.098 131.696,334.149 133.621 L 334.240 137.120 339.200 137.120 L 344.160 137.120 344.160 133.280 L 344.160 129.440 339.273 129.352 C 335.421 129.282,334.352 129.354,334.222 129.692 M0.640 145.678 L 0.640 157.597 12.480 145.760 C 18.992 139.250,24.320 133.887,24.320 133.842 C 24.320 133.797,18.992 133.760,12.480 133.760 L 0.640 133.760 0.640 145.678 M221.200 144.880 C 224.324 144.932,229.436 144.932,232.560 144.880 C 235.684 144.827,233.128 144.784,226.880 144.784 C 220.632 144.784,218.076 144.827,221.200 144.880 M153.848 150.320 L 153.760 155.680 148.480 155.680 L 143.200 155.680 143.112 150.320 L 143.025 144.960 148.480 144.960 L 153.935 144.960 153.848 150.320 M173.048 150.320 L 172.960 155.680 167.600 155.768 L 162.240 155.855 162.240 150.408 L 162.240 144.960 167.688 144.960 L 173.135 144.960 173.048 150.320 M192.320 150.400 L 192.320 155.840 187.040 155.840 L 181.760 155.840 181.760 150.400 L 181.760 144.960 187.040 144.960 L 192.320 144.960 192.320 150.400 M210.060 147.280 L 209.120 148.320 210.160 147.380 C 210.732 146.863,211.200 146.395,211.200 146.340 C 211.200 146.093,210.936 146.311,210.060 147.280 M358.175 157.038 C 359.547 157.098,361.707 157.098,362.975 157.037 C 364.243 156.977,363.120 156.928,360.480 156.928 C 357.840 156.928,356.803 156.978,358.175 157.038 M369.535 157.038 C 370.996 157.098,373.300 157.097,374.655 157.038 C 376.011 156.978,374.816 156.929,372.000 156.930 C 369.184 156.930,368.075 156.979,369.535 157.038 M383.740 157.039 C 386.676 157.092,391.572 157.092,394.620 157.040 C 397.667 156.987,395.264 156.944,389.280 156.944 C 383.296 156.944,380.803 156.987,383.740 157.039 M153.848 173.200 L 153.935 178.560 148.488 178.560 L 143.040 178.560 143.040 173.112 L 143.040 167.665 148.400 167.752 L 153.760 167.840 153.848 173.200 M173.120 173.120 L 173.120 178.560 167.680 178.560 L 162.240 178.560 162.240 173.120 L 162.240 167.680 167.680 167.680 L 173.120 167.680 173.120 173.120 M192.320 173.120 L 192.320 178.560 187.040 178.560 L 181.760 178.560 181.760 173.120 L 181.760 167.680 187.040 167.680 L 192.320 167.680 192.320 173.120 M362.101 175.440 C 362.190 175.660,365.759 179.332,370.032 183.600 L 377.801 191.360 388.901 191.360 L 400.000 191.360 400.000 183.200 L 400.000 175.040 380.970 175.040 C 365.873 175.040,361.973 175.123,362.101 175.440 M226.640 191.279 C 228.356 191.336,231.164 191.336,232.880 191.279 C 234.596 191.221,233.192 191.174,229.760 191.174 C 226.328 191.174,224.924 191.221,226.640 191.279 M310.640 191.280 C 317.020 191.328,327.460 191.328,333.840 191.280 C 340.220 191.231,335.000 191.192,322.240 191.192 C 309.480 191.192,304.260 191.231,310.640 191.280 M285.224 225.600 L 285.280 246.560 295.040 246.754 C 305.235 246.957,305.550 246.993,313.280 248.845 C 317.842 249.939,324.343 252.280,327.979 254.139 C 328.936 254.628,329.740 254.995,329.766 254.954 C 329.791 254.913,329.747 243.756,329.667 230.160 L 329.521 205.440 307.507 205.440 C 290.196 205.440,285.459 205.355,285.331 205.040 C 285.241 204.820,285.193 214.072,285.224 225.600 M258.397 205.699 C 254.904 207.335,254.322 209.143,254.457 217.928 L 254.560 224.579 255.545 225.969 C 256.195 226.886,257.148 227.673,258.345 228.280 L 260.160 229.200 260.160 235.397 L 260.160 241.595 242.000 241.682 C 226.851 241.755,227.607 241.769,246.560 241.769 C 259.056 241.770,267.585 241.727,265.513 241.675 L 261.747 241.580 261.833 235.302 L 261.920 229.024 263.194 228.583 C 267.205 227.195,268.624 221.966,267.691 212.011 C 267.202 206.793,262.656 203.705,258.397 205.699 M303.360 223.520 L 303.360 229.440 298.720 229.440 L 294.080 229.440 294.080 223.520 L 294.080 217.600 298.720 217.600 L 303.360 217.600 303.360 223.520 M320.960 223.520 L 320.960 229.440 316.320 229.440 L 311.680 229.440 311.680 223.520 L 311.680 217.600 316.320 217.600 L 320.960 217.600 320.960 223.520 M49.920 269.279 L 49.920 320.000 56.960 320.000 L 64.000 320.000 64.000 297.305 L 64.000 274.609 71.213 267.465 C 79.401 259.354,78.530 259.898,80.450 261.698 C 81.259 262.455,81.920 262.966,81.920 262.833 C 81.920 262.491,79.071 259.840,78.704 259.840 C 78.515 259.840,78.400 252.072,78.400 239.360 L 78.400 218.880 106.240 218.880 L 134.080 218.880 134.080 239.520 L 134.080 260.160 107.200 260.160 C 92.416 260.160,80.320 260.278,80.320 260.421 C 80.320 260.565,80.788 261.106,81.360 261.624 C 82.617 262.762,83.720 264.122,82.800 263.401 C 82.433 263.113,82.240 263.086,82.240 263.321 C 82.240 263.645,82.662 263.811,83.264 263.723 C 83.557 263.680,87.040 267.163,86.997 267.456 C 86.909 268.058,87.075 268.480,87.399 268.480 C 87.634 268.480,87.607 268.287,87.319 267.920 C 86.913 267.402,86.926 267.396,87.498 267.840 C 88.732 268.798,89.591 269.790,89.516 270.171 C 89.474 270.385,89.658 270.525,89.925 270.483 C 90.192 270.441,90.611 270.729,90.856 271.123 C 91.265 271.779,91.258 271.803,90.771 271.401 C 90.426 271.115,90.240 271.087,90.240 271.321 C 90.240 271.679,90.659 271.808,91.468 271.697 C 91.770 271.656,91.830 271.847,91.671 272.348 C 91.485 272.934,91.543 273.020,92.008 272.841 C 92.381 272.698,92.722 272.843,93.023 273.273 C 93.470 273.911,93.764 273.920,113.778 273.920 C 127.099 273.920,134.080 274.030,134.080 274.240 C 134.080 274.449,127.015 274.587,113.680 274.637 L 93.280 274.714 110.720 274.792 C 120.312 274.835,132.768 274.761,138.400 274.627 L 148.640 274.384 141.522 267.318 L 134.405 260.251 134.322 239.486 L 134.240 218.720 92.080 218.639 L 49.920 218.558 49.920 269.279 M339.840 223.680 L 339.840 228.800 344.640 228.800 L 349.440 228.800 349.440 223.680 L 349.440 218.560 344.640 218.560 L 339.840 218.560 339.840 223.680 M69.440 240.480 L 69.440 246.720 64.160 246.720 L 58.880 246.720 58.880 240.480 L 58.880 234.240 64.160 234.240 L 69.440 234.240 69.440 240.480 M92.160 240.480 L 92.160 246.400 97.120 246.400 L 102.080 246.400 102.080 240.480 L 102.080 234.560 97.120 234.560 L 92.160 234.560 92.160 240.480 M111.040 240.480 L 111.040 246.400 115.840 246.400 L 120.640 246.400 120.640 240.480 L 120.640 234.560 115.840 234.560 L 111.040 234.560 111.040 240.480 M359.150 259.120 L 359.128 279.360 379.564 279.360 L 400.000 279.360 400.000 263.001 L 400.000 246.642 393.200 246.812 C 384.688 247.025,382.601 247.502,376.480 250.635 C 368.233 254.856,361.565 263.613,359.952 272.340 C 359.559 274.467,359.504 273.062,359.346 256.779 L 359.172 238.880 359.150 259.120 M339.840 243.840 L 339.840 248.640 344.640 248.640 L 349.440 248.640 349.440 243.840 L 349.440 239.040 344.640 239.040 L 339.840 239.040 339.840 243.840 M211.760 242.159 C 213.916 242.214,217.444 242.214,219.600 242.159 C 221.756 242.104,219.992 242.058,215.680 242.058 C 211.368 242.058,209.604 242.104,211.760 242.159 M239.040 283.440 L 239.040 320.000 247.040 320.000 L 255.040 320.000 255.040 296.640 L 255.040 273.280 262.240 273.280 L 269.440 273.280 269.440 260.080 L 269.440 246.880 254.240 246.880 L 239.040 246.880 239.040 283.440 M220.857 261.979 C 217.769 263.500,217.230 268.481,219.890 270.931 C 222.744 273.561,227.982 271.722,228.597 267.874 C 229.332 263.282,224.963 259.955,220.857 261.979 M84.480 265.487 C 84.480 265.659,84.912 266.214,85.440 266.720 C 85.968 267.226,86.396 267.505,86.391 267.340 C 86.379 266.933,84.480 265.091,84.480 265.487 M260.800 278.880 L 255.848 283.840 259.127 283.840 L 262.407 283.840 267.365 278.880 L 272.323 273.920 269.038 273.920 L 265.752 273.920 260.800 278.880 M275.265 278.896 L 270.370 283.840 273.669 283.840 L 276.968 283.840 281.920 278.880 L 286.872 273.920 283.516 273.936 L 280.160 273.952 275.265 278.896 M289.920 278.880 L 284.968 283.840 288.168 283.840 L 291.368 283.840 296.320 278.880 L 301.272 273.920 298.072 273.920 L 294.872 273.920 289.920 278.880 M114.880 302.873 L 114.880 320.000 121.283 320.000 L 127.686 320.000 127.603 302.960 L 127.520 285.920 121.200 285.833 L 114.880 285.746 114.880 302.873 M221.226 286.338 C 217.072 288.026,216.975 288.431,216.967 304.240 L 216.960 317.440 218.400 317.440 L 219.840 317.440 219.840 315.696 L 219.840 313.952 221.680 313.856 L 223.520 313.760 223.616 311.920 L 223.712 310.080 226.736 310.080 L 229.760 310.080 229.753 300.560 C 229.747 291.977,229.688 290.914,229.153 289.760 C 227.686 286.592,224.251 285.109,221.226 286.338 M259.200 299.200 L 259.200 309.440 267.360 309.440 L 275.520 309.440 275.520 299.200 L 275.520 288.960 267.360 288.960 L 259.200 288.960 259.200 299.200 M280.000 304.480 C 280.000 319.761,280.010 320.000,280.637 320.000 C 281.262 320.000,281.275 319.734,281.357 305.200 L 281.440 290.400 285.895 290.311 C 289.245 290.243,290.415 290.323,290.610 290.631 C 290.753 290.856,290.872 297.556,290.875 305.520 C 290.879 318.176,290.940 320.000,291.360 320.000 C 291.780 320.000,291.840 318.062,291.840 304.480 L 291.840 288.960 285.920 288.960 L 280.000 288.960 280.000 304.480 M274.240 299.200 L 274.240 308.160 267.360 308.160 L 260.480 308.160 260.480 299.200 L 260.480 290.240 267.360 290.240 L 274.240 290.240 274.240 299.200 " stroke="none" fill="#a4a4ac" fill-rule="evenodd"></path><path id="path1" d="M345.356 53.659 L 335.031 53.769 329.451 59.444 L 323.870 65.120 339.695 65.203 L 355.520 65.286 355.520 110.883 L 355.520 156.480 360.317 156.480 L 365.114 156.480 365.197 141.840 L 365.280 127.200 371.920 127.114 L 378.560 127.027 378.560 141.754 L 378.560 156.480 389.280 156.480 L 400.000 156.480 400.000 137.447 L 400.000 118.413 393.520 118.327 L 387.040 118.240 386.952 112.880 L 386.865 107.520 393.432 107.520 L 400.000 107.520 400.000 102.720 L 400.000 97.920 393.432 97.920 L 386.865 97.920 386.952 92.560 L 387.040 87.200 393.520 87.113 L 400.000 87.027 400.000 70.393 L 400.000 53.760 380.689 53.760 C 370.068 53.760,360.096 53.713,358.529 53.655 C 356.962 53.597,351.034 53.599,345.356 53.659 M378.488 92.567 L 378.576 97.933 371.928 97.847 L 365.280 97.760 365.188 93.120 C 365.138 90.568,365.177 88.153,365.276 87.753 L 365.456 87.027 371.928 87.113 L 378.400 87.200 378.488 92.567 M366.790 92.560 L 366.880 96.160 371.920 96.248 L 376.960 96.336 376.960 92.648 L 376.960 88.960 371.830 88.960 L 366.699 88.960 366.790 92.560 M388.480 92.648 L 388.480 96.336 393.520 96.248 L 398.560 96.160 398.650 92.560 L 398.741 88.960 393.610 88.960 L 388.480 88.960 388.480 92.648 M378.488 112.880 L 378.400 118.240 371.840 118.240 L 365.280 118.240 365.191 113.293 C 365.143 110.573,365.174 108.161,365.261 107.933 C 365.384 107.614,366.917 107.520,371.998 107.520 L 378.575 107.520 378.488 112.880 M366.933 109.333 C 366.816 109.451,366.720 111.104,366.720 113.007 C 366.720 117.153,366.275 116.865,372.480 116.732 L 376.800 116.640 376.890 112.880 L 376.980 109.120 372.063 109.120 C 369.359 109.120,367.051 109.216,366.933 109.333 M388.550 112.872 L 388.640 116.640 393.236 116.729 C 399.020 116.841,398.766 117.031,398.650 112.672 L 398.560 109.280 393.510 109.192 L 388.460 109.104 388.550 112.872 M24.960 128.321 L 24.960 133.442 76.080 133.361 L 127.200 133.280 127.288 128.240 L 127.376 123.200 76.168 123.200 L 24.960 123.200 24.960 128.321 M366.941 128.845 C 366.820 128.967,366.720 135.235,366.720 142.773 L 366.720 156.480 371.843 156.480 L 376.967 156.480 376.883 142.640 L 376.800 128.800 371.981 128.712 C 369.331 128.664,367.063 128.724,366.941 128.845 M208.213 133.973 C 208.096 134.091,208.000 137.791,208.000 142.196 L 208.000 150.205 208.998 148.623 C 209.548 147.752,210.188 146.929,210.423 146.793 C 210.657 146.657,211.036 146.364,211.264 146.141 C 212.678 144.764,214.010 144.640,227.451 144.640 L 240.320 144.640 240.320 139.200 L 240.320 133.760 224.373 133.760 C 215.603 133.760,208.331 133.856,208.213 133.973 M208.077 173.520 L 208.160 190.880 219.680 190.979 C 226.016 191.034,233.252 190.983,235.760 190.866 L 240.320 190.653 240.320 173.407 L 240.320 156.160 224.157 156.160 L 207.994 156.160 208.077 173.520 M314.400 191.600 L 298.720 191.686 292.240 198.160 C 288.676 201.721,285.760 204.742,285.760 204.875 C 285.760 205.007,295.660 205.153,307.760 205.198 L 329.760 205.280 329.954 228.480 C 330.061 241.240,330.170 252.472,330.195 253.440 L 330.242 255.200 332.022 256.130 C 334.120 257.227,336.755 258.922,336.907 259.273 C 336.965 259.409,337.153 259.520,337.324 259.520 C 338.504 259.520,345.850 265.877,353.508 273.525 L 359.040 279.051 359.040 242.090 L 359.040 205.130 352.176 198.245 L 345.312 191.360 337.696 191.437 C 333.507 191.479,323.024 191.553,314.400 191.600 M294.400 223.520 L 294.400 228.800 298.560 228.800 L 302.720 228.800 302.720 223.520 L 302.720 218.240 298.560 218.240 L 294.400 218.240 294.400 223.520 M312.320 223.520 L 312.320 228.800 316.480 228.800 L 320.640 228.800 320.640 223.520 L 320.640 218.240 316.480 218.240 L 312.320 218.240 312.320 223.520 M349.760 223.520 L 349.760 228.800 344.480 228.800 L 339.200 228.800 339.200 223.520 L 339.200 218.240 344.480 218.240 L 349.760 218.240 349.760 223.520 M78.933 219.093 C 78.816 219.211,78.720 228.427,78.720 239.573 L 78.720 259.840 106.400 259.840 L 134.080 259.840 134.080 239.360 L 134.080 218.880 106.613 218.880 C 91.507 218.880,79.051 218.976,78.933 219.093 M102.327 240.400 L 102.240 246.560 96.960 246.560 L 91.680 246.560 91.592 240.811 C 91.544 237.649,91.576 234.877,91.662 234.651 C 91.782 234.339,93.101 234.240,97.117 234.240 L 102.414 234.240 102.327 240.400 M121.280 240.480 L 121.280 246.720 116.000 246.720 L 110.720 246.720 110.720 240.480 L 110.720 234.240 116.000 234.240 L 121.280 234.240 121.280 240.480 M349.760 243.840 L 349.760 249.280 344.480 249.280 L 339.200 249.280 339.200 244.053 C 339.200 241.179,339.296 238.731,339.413 238.613 C 339.531 238.496,341.907 238.400,344.693 238.400 L 349.760 238.400 349.760 243.840 M208.320 244.278 L 208.320 246.320 238.745 246.559 C 258.415 246.713,269.281 246.687,269.483 246.485 C 269.654 246.314,269.751 245.324,269.697 244.287 L 269.600 242.400 238.960 242.318 L 208.320 242.237 208.320 244.278 " stroke="none" fill="#928b9a" fill-rule="evenodd"></path><path id="path2" d="M392.640 1.248 C 392.376 1.395,391.152 1.613,389.920 1.732 C 386.307 2.080,380.086 3.660,377.072 4.994 C 376.517 5.239,375.905 5.440,375.712 5.440 C 375.144 5.440,368.653 8.494,366.720 9.672 C 365.278 10.550,362.174 12.556,361.760 12.878 C 361.584 13.014,360.325 13.973,358.963 15.008 C 355.886 17.346,354.489 18.680,342.934 30.320 L 333.642 39.680 320.661 39.689 C 304.514 39.701,294.608 40.897,288.800 43.536 C 288.448 43.696,287.728 43.981,287.200 44.169 C 281.204 46.307,272.392 51.534,267.543 55.829 C 266.940 56.363,257.040 66.194,245.542 77.675 L 224.637 98.549 216.399 98.660 C 211.867 98.721,215.396 98.707,224.240 98.629 L 240.320 98.487 240.320 106.632 C 240.320 111.111,240.415 118.903,240.532 123.948 L 240.743 133.120 262.734 133.120 L 284.725 133.120 284.918 132.400 C 285.024 132.004,285.113 131.413,285.116 131.086 C 285.133 128.771,289.953 122.572,291.747 122.558 C 291.886 122.557,292.432 122.326,292.960 122.046 C 298.791 118.945,308.094 123.909,309.460 130.850 C 310.869 138.014,305.585 145.920,299.388 145.920 L 298.240 145.920 298.240 153.920 C 298.240 158.320,298.308 161.920,298.391 161.920 C 298.473 161.920,299.301 161.584,300.231 161.173 C 301.160 160.763,303.000 160.093,304.320 159.685 C 305.640 159.277,307.008 158.819,307.360 158.666 C 309.039 157.939,316.017 156.828,319.040 156.806 C 320.184 156.798,321.444 156.704,321.840 156.598 L 322.560 156.405 322.560 127.563 C 322.561 111.699,322.650 91.232,322.759 82.080 L 322.957 65.440 329.088 59.280 L 335.218 53.120 367.609 53.120 L 400.000 53.120 400.000 27.040 L 400.000 0.960 396.560 0.970 C 394.668 0.975,392.904 1.100,392.640 1.248 M6.957 60.723 L 0.000 67.685 0.077 100.803 C 0.120 119.017,0.193 126.036,0.240 116.400 L 0.325 98.880 4.403 98.834 C 12.985 98.736,71.317 98.907,73.600 99.036 C 75.538 99.145,75.754 99.116,74.720 98.884 C 74.016 98.726,62.892 98.589,50.000 98.578 L 26.560 98.560 26.560 83.219 C 26.560 73.554,26.676 67.806,26.873 67.684 C 27.046 67.578,24.242 64.597,20.642 61.060 C 17.043 57.524,14.174 54.506,14.268 54.355 C 14.361 54.204,20.275 54.080,27.408 54.080 L 40.379 54.080 42.320 56.003 C 43.388 57.060,44.311 57.876,44.372 57.815 C 44.433 57.754,43.559 56.817,42.429 55.732 L 40.375 53.760 27.145 53.760 L 13.915 53.760 6.957 60.723 M46.080 59.561 C 46.080 59.815,52.231 65.955,52.359 65.828 C 52.414 65.773,51.024 64.297,49.270 62.550 C 47.515 60.802,46.080 59.457,46.080 59.561 M52.800 66.482 C 52.800 66.658,53.016 66.981,53.280 67.200 C 53.548 67.422,53.760 67.457,53.760 67.278 C 53.760 67.102,53.544 66.779,53.280 66.560 C 53.012 66.338,52.800 66.303,52.800 66.482 M94.964 68.706 C 95.362 68.783,95.938 68.780,96.244 68.700 C 96.550 68.620,96.224 68.557,95.520 68.561 C 94.816 68.564,94.566 68.630,94.964 68.706 M91.360 69.291 C 90.586 69.664,90.555 69.713,91.200 69.541 C 91.640 69.425,92.504 69.227,93.120 69.101 C 94.211 68.879,94.215 68.873,93.280 68.851 C 92.752 68.839,91.888 69.037,91.360 69.291 M97.440 68.994 C 99.980 69.679,100.251 69.723,99.932 69.404 C 99.748 69.220,98.968 69.014,98.199 68.946 C 97.429 68.877,97.088 68.899,97.440 68.994 M88.271 70.868 C 86.918 71.861,85.627 73.301,84.960 74.560 C 84.605 75.231,85.127 74.657,86.175 73.224 C 86.648 72.578,87.756 71.582,88.638 71.010 C 89.519 70.439,90.240 69.924,90.240 69.866 C 90.240 69.565,89.612 69.884,88.271 70.868 M101.234 70.153 C 103.834 71.934,104.801 72.978,106.298 75.620 C 106.815 76.533,107.139 76.920,107.017 76.480 C 106.428 74.354,103.597 71.125,101.440 70.120 C 100.768 69.806,100.735 69.812,101.234 70.153 M83.967 76.350 C 83.703 76.982,83.531 77.632,83.584 77.793 C 83.638 77.955,83.916 77.438,84.202 76.644 C 84.820 74.924,84.651 74.713,83.967 76.350 M83.305 80.800 C 83.306 82.032,83.364 82.497,83.434 81.833 C 83.503 81.169,83.502 80.161,83.431 79.593 C 83.360 79.025,83.304 79.568,83.305 80.800 M107.619 80.800 C 107.621 81.856,107.681 82.249,107.752 81.674 C 107.823 81.099,107.822 80.235,107.749 79.754 C 107.676 79.273,107.617 79.744,107.619 80.800 M83.543 83.899 C 83.514 84.577,84.126 86.221,84.330 86.016 C 84.414 85.933,84.276 85.301,84.024 84.612 C 83.772 83.923,83.555 83.603,83.543 83.899 M106.411 85.949 C 106.011 87.006,105.151 88.175,103.785 89.520 C 101.325 91.943,101.409 92.191,103.894 89.841 C 105.605 88.223,107.360 85.440,107.121 84.724 C 107.058 84.533,106.738 85.085,106.411 85.949 M84.839 87.120 C 85.980 89.276,88.945 91.821,90.880 92.305 C 91.320 92.415,90.957 92.144,90.074 91.703 C 88.319 90.827,85.959 88.668,85.240 87.280 C 84.989 86.796,84.710 86.400,84.621 86.400 C 84.531 86.400,84.629 86.724,84.839 87.120 M100.160 92.025 L 99.360 92.507 100.160 92.297 C 100.600 92.182,101.097 91.960,101.264 91.804 C 101.753 91.347,101.052 91.487,100.160 92.025 M91.927 92.674 C 92.037 92.784,92.603 92.971,93.184 93.090 L 94.240 93.306 94.326 100.253 C 94.374 104.074,94.338 107.200,94.247 107.200 C 94.156 107.200,93.361 106.682,92.481 106.050 C 91.600 105.417,90.880 104.973,90.880 105.063 C 90.880 105.333,93.979 107.520,94.363 107.520 C 94.905 107.520,94.863 93.143,94.320 92.978 C 93.411 92.700,91.741 92.488,91.927 92.674 M96.213 93.013 C 96.096 93.131,96.000 96.771,96.000 101.103 L 96.000 108.978 98.000 110.898 C 99.100 111.954,100.364 113.101,100.808 113.449 C 101.252 113.796,100.422 112.950,98.962 111.568 L 96.309 109.057 96.394 101.171 L 96.480 93.286 97.440 93.081 L 98.400 92.876 97.413 92.838 C 96.871 92.817,96.331 92.896,96.213 93.013 M127.436 110.468 L 127.360 122.535 124.560 122.642 L 121.760 122.748 124.570 122.814 C 128.052 122.896,127.705 124.336,127.600 110.239 L 127.512 98.400 127.436 110.468 M78.240 99.804 C 79.222 100.223,81.212 100.564,80.640 100.215 C 80.376 100.054,79.584 99.834,78.880 99.726 C 78.046 99.599,77.823 99.626,78.240 99.804 M81.600 100.746 C 81.864 100.909,82.440 101.139,82.880 101.257 C 83.436 101.405,83.534 101.380,83.200 101.174 C 82.936 101.011,82.360 100.781,81.920 100.663 C 81.364 100.515,81.266 100.540,81.600 100.746 M85.120 102.215 C 86.012 102.753,86.713 102.893,86.224 102.436 C 86.057 102.280,85.560 102.058,85.120 101.943 L 84.320 101.733 85.120 102.215 M102.880 115.030 C 103.846 115.877,104.960 116.603,104.960 116.386 C 104.960 116.321,104.276 115.801,103.440 115.229 C 102.290 114.442,102.153 114.393,102.880 115.030 M105.597 116.956 C 105.951 117.383,111.653 120.144,111.805 119.961 C 111.860 119.895,110.417 119.108,108.597 118.213 C 106.778 117.318,105.427 116.752,105.597 116.956 M112.320 120.185 C 112.320 120.401,113.982 121.004,114.141 120.846 C 114.213 120.773,113.833 120.561,113.296 120.374 C 112.759 120.186,112.320 120.101,112.320 120.185 M116.000 121.575 C 116.352 121.715,117.216 121.913,117.920 122.015 L 119.200 122.202 117.920 121.765 C 117.216 121.526,116.352 121.327,116.000 121.325 L 115.360 121.321 116.000 121.575 M12.871 145.920 C 6.180 152.608,0.546 158.080,0.352 158.080 C 0.097 158.080,0.000 180.320,0.000 239.040 L 0.000 320.000 18.640 320.000 L 37.280 320.001 37.188 312.960 C 37.097 306.015,37.087 305.920,36.413 305.920 C 30.442 305.920,25.511 296.455,28.301 290.348 C 32.166 281.887,44.378 281.489,48.465 289.689 L 49.280 291.326 49.280 241.175 L 49.280 191.025 67.760 191.122 C 86.782 191.223,91.383 191.539,93.991 192.926 C 94.304 193.092,95.136 193.510,95.840 193.854 C 99.973 195.874,101.649 197.051,105.655 200.749 C 108.347 203.235,108.395 203.273,110.451 204.562 C 112.729 205.991,116.966 207.879,118.910 208.331 C 119.773 208.531,120.840 208.817,121.280 208.964 C 121.720 209.112,123.268 209.326,124.720 209.439 L 127.360 209.644 127.360 171.915 L 127.360 134.185 100.907 133.973 C 86.358 133.856,63.335 133.760,49.746 133.760 L 25.037 133.760 12.871 145.920 M285.443 153.673 L 285.440 169.906 286.240 169.542 C 286.680 169.341,287.040 169.070,287.040 168.938 C 287.040 168.625,291.828 165.455,294.077 164.279 C 296.461 163.033,296.310 163.705,296.315 154.320 L 296.320 145.920 295.280 145.918 C 294.708 145.917,293.870 145.723,293.419 145.487 C 292.967 145.252,292.228 144.966,291.778 144.853 C 290.434 144.516,287.161 141.165,286.256 139.200 L 285.446 137.440 285.443 153.673 M212.960 145.720 C 209.766 147.224,208.000 150.032,208.000 153.609 L 208.000 155.520 224.160 155.520 L 240.320 155.520 240.320 150.240 L 240.320 144.960 227.440 144.963 C 214.583 144.966,214.557 144.968,212.960 145.720 M353.845 183.383 L 346.250 191.040 361.523 191.040 L 376.795 191.040 369.120 183.360 C 364.899 179.136,361.444 175.690,361.443 175.703 C 361.441 175.715,358.022 179.171,353.845 183.383 M149.016 191.251 C 148.897 191.370,148.800 220.387,148.800 255.733 L 148.800 320.000 178.258 320.000 L 207.716 320.000 207.659 280.880 L 207.602 241.760 215.276 241.674 L 222.949 241.589 223.170 238.954 C 223.292 237.505,223.289 226.204,223.165 213.840 L 222.939 191.360 207.949 191.360 L 192.960 191.360 192.885 205.040 L 192.810 218.720 192.645 204.960 L 192.480 191.200 170.856 191.118 C 158.962 191.073,149.134 191.133,149.016 191.251 M346.560 191.603 C 346.560 191.737,349.440 194.723,352.960 198.240 L 359.360 204.634 359.360 221.305 L 359.360 237.976 373.333 238.188 C 381.017 238.305,390.161 238.400,393.653 238.400 L 400.000 238.400 400.000 215.092 L 400.000 191.785 382.960 191.573 C 360.428 191.292,346.560 191.304,346.560 191.603 M213.366 225.360 L 213.280 232.160 207.840 232.160 L 202.400 232.160 202.324 225.760 C 202.283 222.240,202.314 219.180,202.394 218.960 C 202.503 218.661,203.922 218.560,207.996 218.560 L 213.453 218.560 213.366 225.360 M204.480 225.280 L 204.480 230.080 208.000 230.080 L 211.520 230.080 211.520 225.280 L 211.520 220.480 208.000 220.480 L 204.480 220.480 204.480 225.280 M270.080 260.000 L 270.080 273.280 271.360 273.280 C 272.835 273.280,272.970 273.664,271.920 274.877 C 271.524 275.335,271.670 275.235,272.244 274.655 C 273.279 273.609,273.315 273.600,276.324 273.600 C 279.548 273.600,279.672 273.655,278.807 274.695 C 278.503 275.061,278.767 274.887,279.394 274.309 L 280.534 273.257 284.027 273.349 L 287.520 273.440 286.094 275.040 L 284.669 276.640 286.265 275.120 L 287.862 273.600 290.971 273.600 C 293.240 273.600,294.083 273.708,294.090 274.000 C 294.095 274.222,294.245 274.151,294.426 273.840 C 294.890 273.043,301.760 272.988,301.760 273.781 C 301.760 274.057,299.460 276.577,296.648 279.381 L 291.536 284.480 288.008 284.480 C 284.197 284.480,284.124 284.448,285.199 283.221 C 285.869 282.455,285.852 282.459,284.941 283.280 C 284.008 284.121,283.818 284.160,280.628 284.160 L 277.290 284.160 280.965 280.400 L 284.640 276.640 280.635 280.560 L 276.631 284.480 273.205 284.480 C 270.626 284.480,269.804 284.381,269.878 284.080 C 269.931 283.860,269.915 283.788,269.841 283.920 C 269.767 284.052,268.178 284.160,266.311 284.160 L 262.914 284.160 264.016 282.960 C 264.992 281.897,264.952 281.915,263.666 283.120 L 262.216 284.480 258.788 284.480 L 255.360 284.480 255.360 302.240 L 255.360 320.000 267.360 320.000 L 279.360 320.000 279.360 304.519 C 279.360 291.749,279.437 288.974,279.801 288.672 C 280.107 288.418,282.098 288.332,286.281 288.393 L 292.320 288.480 292.403 304.240 L 292.486 320.000 297.281 320.000 L 302.076 320.000 302.158 296.880 L 302.240 273.760 314.880 273.760 L 327.520 273.760 327.680 296.000 C 327.768 308.232,327.940 317.493,328.062 316.581 C 328.662 312.113,332.035 307.842,337.174 305.045 C 340.863 303.037,348.081 303.048,351.823 305.068 C 357.490 308.126,360.681 312.652,361.506 318.800 L 361.667 320.000 380.434 319.993 L 399.200 319.986 372.631 293.513 C 347.010 267.986,344.493 265.550,340.530 262.451 C 338.105 260.555,333.618 257.600,333.165 257.600 C 332.964 257.600,332.800 257.491,332.800 257.358 C 332.800 257.225,332.332 256.913,331.760 256.664 C 331.188 256.415,330.648 256.122,330.560 256.013 C 330.357 255.761,325.568 253.444,325.220 253.429 C 325.077 253.423,324.384 253.140,323.680 252.800 C 322.976 252.460,322.278 252.177,322.128 252.171 C 321.979 252.165,321.403 251.961,320.848 251.718 C 319.278 251.030,316.116 249.998,314.880 249.769 C 314.264 249.656,313.472 249.437,313.120 249.283 C 312.322 248.935,307.777 248.052,304.800 247.667 C 302.169 247.327,283.544 246.724,275.600 246.722 L 270.080 246.720 270.080 260.000 M71.678 267.580 L 64.640 274.593 64.640 297.296 L 64.640 320.000 78.880 320.000 L 93.120 320.000 93.120 297.475 L 93.120 274.950 85.918 267.758 L 78.715 260.567 71.678 267.580 M255.040 278.667 C 255.040 281.453,255.111 283.804,255.198 283.891 C 255.376 284.069,265.280 274.182,265.280 273.827 C 265.280 273.702,262.976 273.600,260.160 273.600 L 255.040 273.600 255.040 278.667 M264.960 274.004 C 264.960 274.050,262.800 276.244,260.160 278.880 L 255.360 283.672 255.360 278.796 L 255.360 273.920 260.160 273.920 C 262.800 273.920,264.960 273.958,264.960 274.004 M291.988 276.240 L 290.400 277.920 292.080 276.332 C 293.004 275.459,293.760 274.703,293.760 274.652 C 293.760 274.413,293.464 274.679,291.988 276.240 M276.625 276.880 L 275.360 278.240 276.720 276.975 C 277.468 276.279,278.080 275.667,278.080 275.615 C 278.080 275.373,277.801 275.615,276.625 276.880 M287.991 280.240 L 285.920 282.400 288.080 280.329 C 290.086 278.406,290.386 278.080,290.151 278.080 C 290.102 278.080,289.130 279.052,287.991 280.240 M272.640 280.800 C 271.329 282.120,270.328 283.200,270.416 283.200 C 270.504 283.200,271.649 282.120,272.960 280.800 C 274.271 279.480,275.272 278.400,275.184 278.400 C 275.096 278.400,273.951 279.480,272.640 280.800 M266.700 280.080 L 265.760 281.120 266.800 280.180 C 267.372 279.663,267.840 279.195,267.840 279.140 C 267.840 278.893,267.576 279.111,266.700 280.080 M84.320 291.360 L 84.320 296.800 78.800 296.888 L 73.280 296.975 73.280 291.360 L 73.280 285.745 78.800 285.832 L 84.320 285.920 84.320 291.360 M276.000 299.200 L 276.000 309.920 268.000 310.010 C 263.600 310.060,259.676 310.021,259.280 309.924 L 258.560 309.748 258.560 299.418 C 258.560 291.734,258.660 288.988,258.949 288.699 C 259.239 288.409,261.458 288.331,267.669 288.395 L 276.000 288.480 276.000 299.200 M308.880 288.848 C 308.458 289.022,308.265 308.187,308.674 309.254 C 308.842 309.691,309.697 309.760,314.919 309.760 L 320.969 309.760 320.884 299.280 L 320.800 288.800 315.040 288.742 C 311.872 288.710,309.100 288.758,308.880 288.848 M319.285 299.280 L 319.370 307.840 314.885 307.840 L 310.400 307.840 310.400 299.191 L 310.400 290.542 314.800 290.631 L 319.200 290.720 319.285 299.280 M261.120 299.360 L 261.120 307.840 267.360 307.840 L 273.600 307.840 273.600 299.360 L 273.600 290.880 267.360 290.880 L 261.120 290.880 261.120 299.360 M281.920 305.440 L 281.920 320.000 286.080 320.000 L 290.240 320.000 290.240 305.440 L 290.240 290.880 286.080 290.880 L 281.920 290.880 281.920 305.440 M48.691 299.661 C 47.715 302.360,43.091 305.919,40.560 305.920 L 39.680 305.920 39.680 312.960 L 39.680 320.000 44.480 320.000 L 49.280 320.000 49.280 309.280 C 49.280 303.384,49.237 298.560,49.184 298.560 C 49.132 298.560,48.909 299.055,48.691 299.661 M224.320 312.149 C 224.320 314.196,223.915 314.560,221.638 314.560 L 220.193 314.560 220.097 316.240 L 220.000 317.920 218.800 318.019 C 217.708 318.110,217.600 318.203,217.600 319.059 L 217.600 320.000 223.680 320.000 L 229.760 320.000 229.760 315.200 L 229.760 310.400 227.040 310.400 L 224.320 310.400 224.320 312.149 " stroke="none" fill="#d2d2d3" fill-rule="evenodd"></path><path id="path3" d="M333.743 54.640 L 332.640 55.840 333.840 54.737 C 334.957 53.711,335.187 53.440,334.943 53.440 C 334.889 53.440,334.349 53.980,333.743 54.640 M14.720 54.518 C 14.720 54.583,17.482 57.391,20.858 60.758 L 26.996 66.880 39.791 66.880 C 46.829 66.880,52.493 66.772,52.377 66.640 C 52.262 66.508,49.466 63.702,46.164 60.403 L 40.160 54.407 27.440 54.403 C 20.444 54.402,14.720 54.453,14.720 54.518 M327.996 60.400 L 323.680 64.800 328.080 60.484 C 332.167 56.476,332.625 56.000,332.396 56.000 C 332.349 56.000,330.369 57.980,327.996 60.400 M92.800 69.313 C 92.536 69.415,91.866 69.700,91.312 69.949 C 90.757 70.197,90.174 70.400,90.017 70.400 C 89.107 70.400,85.919 73.643,84.865 75.641 C 82.383 80.345,84.883 89.426,89.021 90.739 C 89.339 90.840,89.600 91.039,89.600 91.180 C 89.600 91.321,90.284 91.622,91.120 91.848 C 91.956 92.074,92.784 92.367,92.960 92.499 C 93.136 92.631,93.640 92.788,94.080 92.849 L 94.880 92.960 94.958 100.160 C 95.039 107.529,94.855 108.929,93.959 107.760 C 93.723 107.452,93.401 107.200,93.245 107.200 C 93.088 107.199,92.528 106.842,92.000 106.406 C 91.472 105.970,90.896 105.496,90.720 105.354 C 90.544 105.212,89.932 104.904,89.360 104.669 C 88.788 104.435,88.320 104.116,88.320 103.961 C 88.320 103.807,88.140 103.675,87.920 103.670 C 87.700 103.664,86.800 103.306,85.920 102.873 C 85.040 102.440,84.140 102.085,83.920 102.083 C 83.700 102.081,83.520 101.936,83.520 101.760 C 83.520 101.584,83.300 101.440,83.032 101.440 C 82.764 101.440,81.745 101.159,80.769 100.816 C 79.793 100.473,78.321 100.095,77.497 99.976 C 76.674 99.857,75.798 99.597,75.551 99.400 C 75.226 99.139,64.820 99.014,37.871 98.946 L 0.640 98.853 0.640 115.986 L 0.640 133.120 12.416 133.120 C 19.445 133.120,24.315 133.243,24.496 133.425 C 24.688 133.617,24.800 131.761,24.800 128.385 L 24.800 123.040 72.480 122.878 C 98.704 122.790,119.755 122.682,119.260 122.638 C 118.268 122.552,115.577 121.763,114.080 121.120 C 113.552 120.893,112.652 120.609,112.080 120.488 C 111.508 120.368,111.040 120.137,111.040 119.975 C 111.040 119.813,110.819 119.680,110.549 119.680 C 109.691 119.680,103.738 116.369,103.040 115.504 C 102.952 115.395,102.643 115.174,102.353 115.013 C 101.656 114.626,98.433 111.837,96.893 110.289 L 95.669 109.058 95.755 101.009 L 95.840 92.960 96.800 92.852 C 97.328 92.792,97.904 92.632,98.080 92.496 C 98.256 92.360,98.832 92.149,99.360 92.028 C 100.345 91.803,104.320 89.300,104.320 88.905 C 104.320 88.785,104.517 88.489,104.757 88.248 C 105.553 87.453,106.880 84.660,106.880 83.781 C 106.880 83.306,107.024 82.829,107.200 82.720 C 107.376 82.611,107.520 81.819,107.520 80.960 C 107.520 80.101,107.376 79.309,107.200 79.200 C 107.024 79.091,106.880 78.614,106.880 78.139 C 106.880 75.890,103.934 72.055,101.120 70.643 C 100.328 70.245,99.588 69.793,99.475 69.637 C 99.239 69.313,93.524 69.036,92.800 69.313 M332.552 92.560 L 332.640 97.760 339.280 97.846 L 345.920 97.933 345.920 92.646 L 345.920 87.360 339.192 87.360 L 332.464 87.360 332.552 92.560 M344.320 92.648 L 344.320 96.336 339.280 96.248 L 334.240 96.160 334.150 92.560 L 334.059 88.960 339.190 88.960 L 344.320 88.960 344.320 92.648 M207.680 116.240 L 207.680 133.600 224.080 133.600 L 240.480 133.600 240.279 126.400 C 240.169 122.440,240.061 114.628,240.039 109.040 L 240.000 98.880 223.840 98.880 L 207.680 98.880 207.680 116.240 M332.624 107.927 C 332.535 108.158,332.503 110.573,332.551 113.293 L 332.640 118.240 339.200 118.240 L 345.760 118.240 345.760 112.960 L 345.760 107.680 339.273 107.593 C 334.150 107.525,332.751 107.595,332.624 107.927 M344.250 112.880 L 344.160 116.640 339.200 116.640 L 334.240 116.640 334.148 113.302 C 334.023 108.743,333.553 109.120,339.360 109.120 L 344.340 109.120 344.250 112.880 M292.883 122.655 C 288.936 124.315,285.441 129.041,285.440 132.720 C 285.440 133.292,285.332 133.760,285.200 133.760 C 285.068 133.760,285.015 134.516,285.082 135.440 C 285.164 136.582,285.276 136.919,285.430 136.492 C 285.630 135.935,285.682 135.967,285.883 136.767 C 286.691 139.986,289.839 143.660,292.486 144.474 C 292.923 144.608,293.424 144.828,293.600 144.963 C 293.776 145.098,294.534 145.309,295.285 145.433 L 296.650 145.658 296.565 154.620 L 296.480 163.583 294.494 164.639 C 291.755 166.096,288.303 168.430,286.570 169.996 C 286.036 170.478,285.558 170.748,285.506 170.595 C 285.455 170.442,284.375 171.350,283.106 172.613 C 268.902 186.751,257.137 191.002,231.796 191.149 C 227.020 191.177,223.242 191.282,223.400 191.381 C 223.568 191.487,223.653 202.048,223.604 216.661 L 223.520 241.760 241.840 241.675 L 260.160 241.590 260.160 235.395 L 260.160 229.200 258.345 228.280 C 257.148 227.673,256.195 226.886,255.545 225.969 L 254.560 224.579 254.457 217.928 C 254.341 210.380,254.535 209.201,256.198 207.361 C 260.335 202.781,267.082 205.511,267.691 212.011 C 268.624 221.966,267.205 227.195,263.194 228.583 L 261.920 229.024 261.833 235.312 L 261.746 241.600 265.353 241.605 C 267.337 241.608,269.110 241.716,269.294 241.845 C 269.522 242.005,269.587 247.055,269.498 257.680 L 269.367 273.280 267.663 273.280 C 266.725 273.280,265.869 273.424,265.760 273.600 C 265.632 273.807,266.783 273.900,269.021 273.862 C 270.924 273.831,271.832 273.752,271.040 273.688 L 269.600 273.572 269.760 260.066 L 269.920 246.560 277.600 246.560 L 285.280 246.560 285.195 225.755 L 285.111 204.950 292.092 197.995 L 299.073 191.040 322.071 191.040 C 343.510 191.040,345.114 191.078,345.729 191.600 C 346.362 192.137,346.370 192.136,345.938 191.579 C 345.308 190.768,361.090 174.811,361.885 175.454 C 362.262 175.758,362.312 175.755,362.123 175.440 C 361.931 175.122,365.779 175.040,380.941 175.040 L 400.000 175.040 400.000 166.080 L 400.000 157.120 389.360 157.115 C 383.508 157.112,366.786 157.024,352.200 156.920 C 315.941 156.662,310.455 157.178,300.195 161.815 C 297.464 163.049,297.577 163.400,297.675 154.008 L 297.760 145.760 299.360 145.419 C 300.240 145.232,301.365 144.908,301.861 144.699 C 302.356 144.491,302.830 144.320,302.914 144.320 C 303.917 144.320,307.075 141.016,308.104 138.890 C 312.735 129.317,302.642 118.551,292.883 122.655 M125.046 123.112 C 125.621 123.183,126.485 123.182,126.966 123.109 C 127.447 123.036,126.976 122.977,125.920 122.979 C 124.864 122.981,124.471 123.041,125.046 123.112 M143.040 128.480 L 143.040 133.760 148.480 133.760 L 153.920 133.760 153.920 128.480 L 153.920 123.200 148.480 123.200 L 143.040 123.200 143.040 128.480 M162.240 128.480 L 162.240 133.760 167.680 133.760 L 173.120 133.760 173.120 128.480 L 173.120 123.200 167.680 123.200 L 162.240 123.200 162.240 128.480 M181.760 128.480 L 181.760 133.760 187.040 133.760 L 192.320 133.760 192.320 128.480 L 192.320 123.200 187.040 123.200 L 181.760 123.200 181.760 128.480 M332.480 133.280 L 332.480 138.560 339.200 138.560 L 345.920 138.560 345.920 133.280 L 345.920 128.000 339.200 128.000 L 332.480 128.000 332.480 133.280 M344.160 133.280 L 344.160 137.120 339.200 137.120 L 334.240 137.120 334.149 133.621 C 334.024 128.854,333.550 129.248,339.273 129.352 L 344.160 129.440 344.160 133.280 M0.396 145.680 C 0.354 152.324,0.429 157.760,0.562 157.760 C 0.695 157.760,6.131 152.396,12.642 145.840 L 24.480 133.920 12.564 145.754 L 0.648 157.589 0.560 145.594 L 0.472 133.600 0.396 145.680 M143.112 150.320 L 143.200 155.680 148.480 155.680 L 153.760 155.680 153.848 150.320 L 153.935 144.960 148.480 144.960 L 143.025 144.960 143.112 150.320 M162.240 150.408 L 162.240 155.855 167.600 155.768 L 172.960 155.680 173.048 150.320 L 173.135 144.960 167.688 144.960 L 162.240 144.960 162.240 150.408 M181.760 150.400 L 181.760 155.840 187.040 155.840 L 192.320 155.840 192.320 150.400 L 192.320 144.960 187.040 144.960 L 181.760 144.960 181.760 150.400 M240.772 150.400 C 240.772 153.480,240.820 154.740,240.878 153.200 C 240.937 151.660,240.937 149.140,240.878 147.600 C 240.820 146.060,240.772 147.320,240.772 150.400 M207.680 151.840 C 207.680 152.456,207.736 152.960,207.805 152.960 C 207.874 152.960,207.989 152.456,208.061 151.840 C 208.133 151.224,208.076 150.720,207.936 150.720 C 207.795 150.720,207.680 151.224,207.680 151.840 M143.040 173.112 L 143.040 178.560 148.488 178.560 L 153.935 178.560 153.848 173.200 L 153.760 167.840 148.400 167.752 L 143.040 167.665 143.040 173.112 M162.240 173.120 L 162.240 178.560 167.680 178.560 L 173.120 178.560 173.120 173.120 L 173.120 167.680 167.680 167.680 L 162.240 167.680 162.240 173.120 M181.760 173.120 L 181.760 178.560 187.040 178.560 L 192.320 178.560 192.320 173.120 L 192.320 167.680 187.040 167.680 L 181.760 167.680 181.760 173.120 M49.813 211.760 C 49.696 222.980,49.594 246.056,49.587 263.040 L 49.573 293.920 48.900 292.000 C 47.745 288.709,46.385 287.114,43.040 285.126 C 41.386 284.142,36.308 284.002,34.720 284.896 C 34.192 285.193,33.583 285.437,33.367 285.438 C 31.196 285.449,28.042 291.044,28.049 294.872 C 28.056 298.668,31.195 304.320,33.296 304.320 C 33.440 304.320,33.964 304.490,34.459 304.698 C 34.955 304.906,35.936 305.230,36.640 305.418 L 37.920 305.760 38.006 312.880 C 38.079 318.916,38.164 320.000,38.566 320.000 C 38.971 320.000,39.040 318.949,39.040 312.828 L 39.040 305.656 40.400 305.430 C 43.815 304.861,47.655 301.720,48.469 298.830 C 49.342 295.730,49.440 296.550,49.606 308.351 C 49.697 314.846,49.805 297.299,49.846 269.359 L 49.920 218.558 92.080 218.639 L 134.240 218.720 134.322 239.486 L 134.405 260.251 141.522 267.326 L 148.640 274.400 140.480 274.595 C 135.992 274.702,123.572 274.810,112.880 274.835 L 93.440 274.880 93.440 297.440 L 93.440 320.000 104.160 320.000 L 114.880 320.000 114.880 302.873 L 114.880 285.746 121.200 285.833 L 127.520 285.920 127.603 302.960 L 127.686 320.000 138.243 320.000 L 148.800 320.000 148.805 304.240 C 148.808 295.572,148.650 273.936,148.454 256.160 C 148.246 237.218,148.210 220.926,148.369 216.800 L 148.640 209.760 136.040 209.847 C 128.890 209.897,122.801 209.802,121.960 209.629 C 121.146 209.460,119.832 209.168,119.040 208.978 C 117.355 208.574,112.388 206.480,111.655 205.865 C 111.377 205.631,111.045 205.440,110.918 205.440 C 110.494 205.440,106.110 202.001,104.014 200.025 C 101.575 197.724,98.506 195.619,95.840 194.415 C 94.784 193.938,93.632 193.417,93.280 193.256 C 92.659 192.972,89.657 192.250,86.720 191.678 C 85.928 191.524,77.348 191.390,67.653 191.379 L 50.025 191.360 49.813 211.760 M202.880 225.280 L 202.880 231.680 208.000 231.680 L 213.120 231.680 213.120 225.280 L 213.120 218.880 208.000 218.880 L 202.880 218.880 202.880 225.280 M211.776 220.224 C 212.220 220.668,212.321 229.652,211.890 230.331 C 211.696 230.636,210.651 230.718,207.815 230.651 L 204.000 230.560 203.912 225.464 C 203.845 221.602,203.922 220.305,204.232 220.109 C 204.898 219.686,211.336 219.784,211.776 220.224 M58.880 240.480 L 58.880 246.720 64.160 246.720 L 69.440 246.720 69.440 240.480 L 69.440 234.240 64.160 234.240 L 58.880 234.240 58.880 240.480 M359.252 238.666 C 359.312 238.901,359.371 247.109,359.384 256.906 C 359.409 274.679,359.410 274.714,359.971 272.160 C 361.972 263.037,368.255 254.845,376.480 250.635 C 382.601 247.502,384.688 247.025,393.200 246.812 L 400.000 246.642 400.000 242.681 L 400.000 238.720 379.707 238.720 C 368.545 238.720,359.353 238.612,359.279 238.480 C 359.205 238.348,359.193 238.432,359.252 238.666 M208.243 283.360 L 208.325 320.000 212.462 320.000 L 216.599 320.000 216.700 318.960 C 216.795 317.969,216.875 317.911,218.400 317.730 L 220.000 317.541 218.480 317.490 L 216.960 317.440 216.960 304.310 C 216.960 289.896,216.970 289.816,218.915 287.806 C 222.039 284.578,227.486 285.727,229.264 289.990 C 229.662 290.944,229.760 292.596,229.760 298.338 C 229.760 302.275,229.855 308.760,229.971 312.748 L 230.182 320.000 234.448 320.000 L 238.715 320.000 238.797 283.360 L 238.880 246.720 223.520 246.720 L 208.160 246.720 208.243 283.360 M300.404 246.946 C 300.802 247.023,301.378 247.020,301.684 246.940 C 301.990 246.860,301.664 246.797,300.960 246.801 C 300.256 246.804,300.006 246.870,300.404 246.946 M225.717 261.881 C 230.089 263.708,229.432 270.800,224.781 271.971 C 221.088 272.901,218.240 270.585,218.240 266.650 C 218.240 262.652,221.930 260.299,225.717 261.881 M281.280 273.806 C 283.961 274.043,287.041 274.061,287.041 273.840 C 287.040 273.708,285.492 273.624,283.600 273.654 C 281.708 273.683,280.664 273.752,281.280 273.806 M289.836 278.644 C 287.066 281.418,284.800 283.794,284.800 283.924 C 284.800 284.054,286.278 284.160,288.084 284.160 L 291.368 284.160 296.404 279.116 C 299.174 276.342,301.440 273.966,301.440 273.836 C 301.440 273.706,299.962 273.600,298.156 273.600 L 294.872 273.600 289.836 278.644 M296.320 278.880 L 291.368 283.840 288.168 283.840 L 284.968 283.840 289.920 278.880 L 294.872 273.920 298.072 273.920 L 301.272 273.920 296.320 278.880 M64.152 297.280 C 64.152 309.864,64.191 315.012,64.240 308.720 C 64.288 302.428,64.288 292.132,64.240 285.840 C 64.191 279.548,64.152 284.696,64.152 297.280 M359.157 279.360 C 359.495 279.624,368.822 288.854,379.885 299.871 L 400.000 319.902 400.000 299.631 L 400.000 279.360 379.584 279.360 C 368.355 279.360,359.028 279.252,358.856 279.120 C 358.684 278.988,358.820 279.096,359.157 279.360 M255.893 283.413 C 255.776 283.531,255.680 283.747,255.680 283.893 C 255.680 284.225,262.306 284.251,262.512 283.920 C 262.594 283.788,261.148 283.726,259.298 283.781 C 256.976 283.851,256.001 283.777,256.147 283.541 C 256.381 283.162,256.224 283.082,255.893 283.413 M271.920 284.076 C 272.844 284.141,274.356 284.141,275.280 284.076 C 276.204 284.011,275.448 283.958,273.600 283.958 C 271.752 283.958,270.996 284.011,271.920 284.076 M73.920 291.360 L 73.920 296.320 78.880 296.320 L 83.840 296.320 83.840 291.360 L 83.840 286.400 78.880 286.400 L 73.920 286.400 73.920 291.360 M275.595 299.115 L 275.520 309.429 267.280 309.520 L 259.040 309.611 267.290 309.686 C 273.682 309.743,275.575 309.669,275.695 309.357 C 275.780 309.135,275.809 304.419,275.760 298.877 L 275.671 288.800 275.595 299.115 M291.988 304.480 C 291.988 313.104,292.029 316.586,292.080 312.218 C 292.130 307.850,292.130 300.794,292.080 296.538 C 292.029 292.282,291.988 295.856,291.988 304.480 M260.480 299.200 L 260.480 308.160 267.440 308.087 L 274.400 308.013 267.590 307.920 L 260.780 307.827 260.870 299.033 C 260.920 294.197,260.852 290.240,260.720 290.240 C 260.588 290.240,260.480 294.272,260.480 299.200 M281.427 290.640 C 281.342 290.860,281.312 297.592,281.360 305.600 L 281.447 320.160 281.523 305.369 L 281.600 290.578 286.160 290.479 L 290.720 290.381 286.150 290.310 C 282.736 290.258,281.541 290.341,281.427 290.640 M290.707 305.440 C 290.708 313.536,290.749 316.802,290.800 312.698 C 290.850 308.594,290.850 301.970,290.800 297.978 C 290.749 293.986,290.707 297.344,290.707 305.440 M340.800 304.497 C 334.299 305.891,328.822 311.777,328.389 317.836 L 328.234 320.000 344.597 320.000 C 357.914 320.000,360.960 319.922,360.960 319.579 C 360.960 314.814,356.963 308.337,352.701 306.195 C 351.876 305.780,351.127 305.344,351.038 305.227 C 350.328 304.295,343.886 303.835,340.800 304.497 M223.675 311.905 C 223.590 312.997,223.636 313.774,223.778 313.631 C 223.920 313.488,223.990 312.595,223.934 311.646 L 223.831 309.920 223.675 311.905 M219.877 315.600 C 219.916 317.346,220.041 317.178,220.237 315.120 C 220.300 314.460,220.236 313.920,220.096 313.920 C 219.955 313.920,219.857 314.676,219.877 315.600 " stroke="none" fill="#b3b3bb" fill-rule="evenodd"></path><path id="path4" d="M0.000 5.440 L 0.000 10.880 33.200 10.883 C 76.618 10.886,80.642 11.381,93.142 18.252 C 94.411 18.949,95.496 19.520,95.554 19.520 C 96.704 19.520,105.411 26.448,110.764 31.622 L 115.127 35.840 128.216 35.840 C 141.758 35.840,146.534 35.532,150.603 34.395 C 159.863 31.808,165.304 28.696,173.280 21.424 C 180.749 14.616,187.237 11.129,197.280 8.527 C 199.830 7.866,200.164 7.863,284.960 7.692 L 370.080 7.520 372.671 6.348 C 379.456 3.280,384.774 1.894,393.920 0.811 L 400.160 0.071 200.080 0.036 L 0.000 0.000 0.000 5.440 M203.040 9.297 C 192.300 10.108,182.077 14.896,173.440 23.161 C 165.724 30.544,157.043 34.929,146.720 36.657 C 144.877 36.965,140.377 37.090,130.659 37.103 C 123.233 37.112,117.085 37.237,116.997 37.380 C 116.908 37.523,120.536 41.327,125.058 45.832 L 133.280 54.023 146.240 54.189 C 159.049 54.354,161.866 54.547,166.240 55.557 C 169.048 56.206,174.568 57.844,175.840 58.407 C 176.368 58.640,177.808 59.265,179.040 59.795 C 188.623 63.919,191.214 66.004,209.971 84.696 C 218.585 93.280,223.809 98.258,224.129 98.189 C 224.409 98.129,234.394 88.346,246.319 76.449 C 267.792 55.026,269.274 53.647,274.560 50.187 C 287.497 41.717,297.463 39.368,320.491 39.363 L 333.301 39.360 339.691 32.880 L 346.080 26.400 319.120 26.318 C 292.426 26.237,292.160 26.230,292.160 25.598 C 292.160 24.966,292.400 24.960,319.872 24.960 L 347.584 24.960 352.497 20.215 C 355.198 17.605,358.244 14.896,359.265 14.195 C 360.285 13.494,361.840 12.416,362.720 11.800 C 363.600 11.184,364.968 10.295,365.760 9.823 L 367.200 8.966 286.720 9.010 C 242.456 9.035,204.800 9.164,203.040 9.297 M246.560 44.320 C 246.560 44.955,246.320 44.961,212.560 45.041 C 179.744 45.120,178.560 45.102,178.560 44.535 C 178.560 44.211,178.657 43.850,178.775 43.732 C 179.417 43.090,246.560 43.673,246.560 44.320 M27.200 83.200 L 27.200 98.560 40.446 98.560 C 52.229 98.560,53.713 98.504,53.886 98.054 C 53.993 97.775,54.080 90.863,54.080 82.694 L 54.080 67.840 40.640 67.840 L 27.200 67.840 27.200 83.200 " stroke="none" fill="#fbfbfb" fill-rule="evenodd"></path><path id="path5" d="M395.520 0.640 C 393.973 0.830,394.137 0.862,396.880 0.908 C 398.781 0.940,400.000 0.835,400.000 0.640 C 400.000 0.295,398.333 0.295,395.520 0.640 M390.240 1.177 C 386.457 1.656,377.636 3.983,378.046 4.393 C 378.138 4.485,379.119 4.254,380.227 3.879 C 383.059 2.922,387.285 1.986,389.920 1.732 C 392.226 1.509,393.998 0.945,392.160 1.018 C 391.632 1.039,390.768 1.111,390.240 1.177 M376.320 4.788 C 375.880 4.928,374.296 5.599,372.800 6.281 L 370.080 7.520 284.960 7.692 C 200.164 7.863,199.830 7.866,197.280 8.527 C 187.237 11.129,180.749 14.616,173.280 21.424 C 165.304 28.696,159.863 31.808,150.603 34.395 C 146.534 35.532,141.758 35.840,128.216 35.840 L 115.127 35.840 110.764 31.622 C 105.411 26.448,96.704 19.520,95.554 19.520 C 95.496 19.520,94.411 18.949,93.142 18.252 C 80.642 11.381,76.618 10.886,33.200 10.883 L 0.000 10.880 0.000 39.277 L 0.000 67.675 6.963 60.717 L 13.925 53.760 27.178 53.760 L 40.430 53.760 47.093 60.400 C 50.758 64.052,53.757 67.146,53.758 67.277 C 53.759 67.407,47.676 67.551,40.240 67.597 L 26.720 67.680 26.637 83.120 C 26.582 93.353,26.663 98.560,26.877 98.560 C 27.090 98.560,27.200 93.324,27.200 83.200 L 27.200 67.840 40.649 67.840 L 54.098 67.840 54.009 83.200 L 53.920 98.560 63.618 98.560 C 77.648 98.560,83.375 99.969,91.532 105.429 C 92.987 106.403,94.228 107.200,94.289 107.200 C 94.650 107.200,94.363 93.410,94.000 93.315 C 87.361 91.566,83.797 87.866,83.322 82.227 C 82.504 72.533,91.927 65.697,100.580 69.707 C 111.259 74.657,109.713 89.983,98.240 92.904 L 96.480 93.353 96.394 101.201 L 96.309 109.050 98.634 111.212 C 106.092 118.146,114.846 122.095,123.600 122.475 L 127.360 122.639 127.360 110.599 L 127.360 98.560 175.993 98.560 L 224.627 98.560 245.537 77.680 C 257.037 66.196,266.940 56.363,267.543 55.829 C 272.392 51.534,281.204 46.307,287.200 44.169 C 287.728 43.981,288.448 43.696,288.800 43.536 C 289.802 43.081,293.761 41.953,295.455 41.640 C 296.990 41.357,297.827 40.960,296.888 40.960 C 293.149 40.960,280.873 46.018,274.621 50.136 C 269.235 53.683,267.810 55.008,246.319 76.449 C 234.394 88.346,224.409 98.129,224.129 98.189 C 223.809 98.258,218.585 93.280,209.971 84.696 C 191.214 66.004,188.623 63.919,179.040 59.795 C 177.808 59.265,176.368 58.640,175.840 58.407 C 174.568 57.844,169.048 56.206,166.240 55.557 C 161.866 54.547,159.049 54.354,146.240 54.189 L 133.280 54.023 125.058 45.832 C 120.536 41.327,116.908 37.523,116.997 37.380 C 117.085 37.237,123.233 37.112,130.659 37.103 C 140.377 37.090,144.877 36.965,146.720 36.657 C 157.043 34.929,165.724 30.544,173.440 23.161 C 180.867 16.054,187.930 12.288,198.400 9.853 L 201.440 9.146 284.320 9.051 L 367.200 8.955 365.760 9.818 C 364.968 10.292,363.600 11.184,362.720 11.800 C 361.840 12.416,360.285 13.494,359.265 14.195 C 358.244 14.896,355.198 17.605,352.497 20.215 L 347.584 24.960 319.872 24.960 C 292.400 24.960,292.160 24.966,292.160 25.598 C 292.160 26.230,292.426 26.237,319.120 26.318 L 346.080 26.400 339.691 32.880 L 333.301 39.360 320.555 39.360 C 308.200 39.360,301.291 39.754,298.377 40.625 C 296.844 41.083,298.196 40.998,303.200 40.320 C 307.269 39.769,309.715 39.680,320.784 39.680 L 333.642 39.680 342.934 30.320 C 354.489 18.680,355.886 17.346,358.963 15.008 C 360.325 13.973,361.584 13.014,361.760 12.878 C 362.174 12.556,365.278 10.550,366.720 9.672 C 368.999 8.284,374.833 5.601,376.236 5.296 C 376.806 5.172,377.355 4.938,377.455 4.775 C 377.666 4.434,377.432 4.436,376.320 4.788 M178.775 43.732 C 178.657 43.850,178.560 44.211,178.560 44.535 C 178.560 45.102,179.744 45.120,212.560 45.041 C 246.320 44.961,246.560 44.955,246.560 44.320 C 246.560 43.673,179.417 43.090,178.775 43.732 M268.053 278.832 L 262.987 284.000 266.159 284.091 L 269.332 284.181 274.263 279.218 C 280.279 273.164,280.125 273.593,276.267 273.632 L 273.120 273.664 268.053 278.832 M282.626 278.800 L 277.437 284.000 280.703 284.092 L 283.969 284.184 289.024 279.136 C 291.805 276.359,294.080 273.978,294.080 273.844 C 294.080 273.710,292.671 273.600,290.948 273.600 L 287.816 273.600 282.626 278.800 M302.297 273.810 C 302.178 273.929,302.080 284.371,302.080 297.013 L 302.080 320.000 314.697 320.000 L 327.314 320.000 327.511 318.320 C 327.620 317.396,327.666 306.992,327.614 295.200 L 327.520 273.760 315.017 273.676 C 308.140 273.630,302.416 273.690,302.297 273.810 M255.360 278.796 L 255.360 283.672 260.160 278.880 C 262.800 276.244,264.960 274.050,264.960 274.004 C 264.960 273.958,262.800 273.920,260.160 273.920 L 255.360 273.920 255.360 278.796 M320.884 299.280 L 320.969 309.760 314.919 309.760 C 309.697 309.760,308.842 309.691,308.674 309.254 C 308.265 308.187,308.458 289.022,308.880 288.848 C 309.100 288.758,311.872 288.710,315.040 288.742 L 320.800 288.800 320.884 299.280 M310.400 299.191 L 310.400 307.840 314.885 307.840 L 319.370 307.840 319.285 299.280 L 319.200 290.720 314.800 290.631 L 310.400 290.542 310.400 299.191 " stroke="none" fill="#ececec" fill-rule="evenodd"></path><path id="path6" d="M340.420 53.680 C 343.291 53.733,347.899 53.733,350.660 53.679 C 353.421 53.626,351.072 53.583,345.440 53.583 C 339.808 53.583,337.549 53.626,340.420 53.680 M369.543 53.680 C 375.232 53.729,384.448 53.729,390.023 53.680 C 395.598 53.631,390.944 53.591,379.680 53.591 C 368.416 53.591,363.854 53.631,369.543 53.680 M326.153 62.487 C 324.705 63.942,323.520 65.238,323.520 65.367 C 323.520 65.495,330.756 65.565,339.600 65.523 L 355.680 65.446 339.690 65.360 L 323.700 65.274 326.403 62.557 C 327.890 61.063,329.034 59.840,328.946 59.840 C 328.858 59.840,327.601 61.031,326.153 62.487 M365.276 87.753 C 365.177 88.153,365.138 90.568,365.188 93.120 L 365.280 97.760 371.928 97.847 L 378.576 97.933 378.488 92.567 L 378.400 87.200 371.928 87.113 L 365.456 87.027 365.276 87.753 M387.093 87.253 C 386.976 87.371,386.880 89.819,386.880 92.693 L 386.880 97.920 393.520 97.847 L 400.160 97.774 393.680 97.680 L 387.200 97.587 387.200 92.633 L 387.200 87.680 393.600 87.680 C 397.653 87.680,400.000 87.563,400.000 87.360 C 400.000 87.001,387.449 86.897,387.093 87.253 M377.920 92.640 L 377.920 97.600 371.680 97.600 L 365.440 97.600 365.440 92.640 L 365.440 87.680 371.680 87.680 L 377.920 87.680 377.920 92.640 M366.400 92.480 L 366.400 96.640 372.000 96.640 L 377.600 96.640 377.600 92.674 C 377.600 87.911,378.173 88.320,371.494 88.320 L 366.400 88.320 366.400 92.480 M388.160 92.480 L 388.160 96.640 393.600 96.640 L 399.040 96.640 399.040 92.480 L 399.040 88.320 393.600 88.320 L 388.160 88.320 388.160 92.480 M376.960 92.648 L 376.960 96.336 371.920 96.248 L 366.880 96.160 366.790 92.560 L 366.699 88.960 371.830 88.960 L 376.960 88.960 376.960 92.648 M398.650 92.560 L 398.560 96.160 393.520 96.248 L 388.480 96.336 388.480 92.648 L 388.480 88.960 393.610 88.960 L 398.741 88.960 398.650 92.560 M365.261 107.933 C 365.174 108.161,365.143 110.573,365.191 113.293 L 365.280 118.240 371.840 118.240 L 378.400 118.240 378.488 112.880 L 378.575 107.520 371.998 107.520 C 366.917 107.520,365.384 107.614,365.261 107.933 M386.952 112.880 L 387.040 118.240 393.520 118.250 L 400.000 118.260 393.600 118.164 L 387.200 118.067 387.200 112.960 L 387.200 107.853 393.680 107.760 L 400.160 107.666 393.512 107.593 L 386.865 107.520 386.952 112.880 M377.920 112.960 L 377.920 118.080 371.680 118.080 L 365.440 118.080 365.440 112.960 L 365.440 107.840 371.680 107.840 L 377.920 107.840 377.920 112.960 M366.400 112.960 L 366.400 117.120 372.000 117.120 L 377.600 117.120 377.600 112.960 L 377.600 108.800 372.000 108.800 L 366.400 108.800 366.400 112.960 M388.160 112.960 L 388.160 117.120 393.600 117.120 L 399.040 117.120 399.040 112.960 L 399.040 108.800 393.600 108.800 L 388.160 108.800 388.160 112.960 M376.890 112.880 L 376.800 116.640 372.480 116.732 C 366.275 116.865,366.720 117.153,366.720 113.007 C 366.720 108.752,366.214 109.120,372.063 109.120 L 376.980 109.120 376.890 112.880 M398.650 112.672 C 398.766 117.031,399.020 116.841,393.236 116.729 L 388.640 116.640 388.550 112.872 L 388.460 109.104 393.510 109.192 L 398.560 109.280 398.650 112.672 M127.295 128.320 C 127.243 131.137,127.308 133.441,127.440 133.440 C 127.572 133.440,127.680 131.136,127.680 128.320 C 127.680 121.695,127.419 121.695,127.295 128.320 M365.333 127.253 C 365.216 127.371,365.120 133.991,365.120 141.965 L 365.120 156.463 360.240 156.561 C 357.556 156.614,365.440 156.656,377.760 156.653 C 390.080 156.651,395.300 156.609,389.360 156.560 L 378.560 156.471 378.560 141.756 L 378.560 127.040 372.053 127.040 C 368.475 127.040,365.451 127.136,365.333 127.253 M377.843 141.840 L 377.767 156.320 377.680 142.320 L 377.593 128.320 371.997 128.320 L 366.400 128.320 366.400 142.240 C 366.400 154.400,366.339 156.160,365.920 156.160 C 365.500 156.160,365.440 154.347,365.440 141.760 L 365.440 127.360 371.680 127.360 L 377.920 127.360 377.843 141.840 M376.883 142.640 L 376.967 156.480 371.843 156.480 L 366.720 156.480 366.720 142.773 C 366.720 135.235,366.820 128.967,366.941 128.845 C 367.063 128.724,369.331 128.664,371.981 128.712 L 376.800 128.800 376.883 142.640 M240.391 139.101 L 240.320 144.601 239.120 144.727 L 237.920 144.852 239.130 144.906 C 240.697 144.976,240.674 145.076,240.560 138.868 L 240.463 133.600 240.391 139.101 M240.397 173.346 L 240.320 190.692 238.000 190.802 L 235.680 190.913 238.010 190.976 C 239.629 191.021,240.387 190.918,240.493 190.640 C 240.577 190.420,240.608 182.536,240.560 173.120 L 240.474 156.000 240.397 173.346 M306.458 191.600 C 310.714 191.650,317.770 191.650,322.138 191.600 C 326.506 191.549,323.024 191.508,314.400 191.508 C 305.776 191.508,302.202 191.549,306.458 191.600 M291.917 198.163 C 288.355 201.728,285.440 204.824,285.440 205.043 C 285.440 205.355,290.154 205.440,307.520 205.440 L 329.600 205.440 329.641 225.520 C 329.664 236.564,329.772 247.760,329.881 250.400 C 329.991 253.040,330.035 244.112,329.979 230.560 C 329.924 217.008,329.820 205.740,329.749 205.520 C 329.648 205.205,324.952 205.120,307.690 205.120 C 295.629 205.120,285.760 205.013,285.760 204.883 C 285.760 204.752,288.675 201.728,292.237 198.163 C 295.799 194.597,298.642 191.680,298.554 191.680 C 298.466 191.680,295.479 194.597,291.917 198.163 M294.080 223.520 L 294.080 229.440 298.720 229.440 L 303.360 229.440 303.360 223.520 L 303.360 217.600 298.720 217.600 L 294.080 217.600 294.080 223.520 M311.680 223.520 L 311.680 229.440 316.320 229.440 L 320.960 229.440 320.960 223.520 L 320.960 217.600 316.320 217.600 L 311.680 217.600 311.680 223.520 M302.720 223.520 L 302.720 228.800 298.560 228.800 L 294.400 228.800 294.400 223.520 L 294.400 218.240 298.560 218.240 L 302.720 218.240 302.720 223.520 M320.640 223.520 L 320.640 228.800 316.480 228.800 L 312.320 228.800 312.320 223.520 L 312.320 218.240 316.480 218.240 L 320.640 218.240 320.640 223.520 M339.200 223.520 C 339.200 226.827,339.320 228.800,339.520 228.800 C 339.720 228.800,339.840 226.880,339.840 223.680 L 339.840 218.560 344.632 218.560 L 349.424 218.560 349.521 223.760 L 349.617 228.960 349.689 223.600 L 349.760 218.240 344.480 218.240 L 339.200 218.240 339.200 223.520 M78.474 239.440 C 78.514 250.748,78.586 256.688,78.633 252.640 C 78.855 233.552,78.858 218.880,78.640 218.880 C 78.508 218.880,78.433 228.132,78.474 239.440 M91.662 234.651 C 91.576 234.877,91.544 237.649,91.592 240.811 L 91.680 246.560 96.960 246.560 L 102.240 246.560 102.327 240.400 L 102.414 234.240 97.117 234.240 C 93.101 234.240,91.782 234.339,91.662 234.651 M110.720 240.480 L 110.720 246.720 116.000 246.720 L 121.280 246.720 121.280 240.480 L 121.280 234.240 116.000 234.240 L 110.720 234.240 110.720 240.480 M102.080 240.480 L 102.080 246.400 97.120 246.400 L 92.160 246.400 92.160 240.480 L 92.160 234.560 97.120 234.560 L 102.080 234.560 102.080 240.480 M120.640 240.480 L 120.640 246.400 115.840 246.400 L 111.040 246.400 111.040 240.480 L 111.040 234.560 115.840 234.560 L 120.640 234.560 120.640 240.480 M339.413 238.613 C 339.296 238.731,339.200 241.179,339.200 244.053 L 339.200 249.280 344.480 249.280 L 349.760 249.280 349.760 243.840 L 349.760 238.400 344.693 238.400 C 341.907 238.400,339.531 238.496,339.413 238.613 M349.440 243.840 L 349.440 248.640 344.640 248.640 L 339.840 248.640 339.840 243.840 L 339.840 239.040 344.640 239.040 L 349.440 239.040 349.440 243.840 M241.760 241.922 L 223.200 242.084 246.464 242.242 C 259.259 242.329,269.627 242.304,269.504 242.188 C 269.126 241.829,261.144 241.753,241.760 241.922 M208.063 244.400 L 208.000 246.720 223.600 246.643 L 239.200 246.566 223.775 246.480 L 208.349 246.394 208.237 244.237 L 208.125 242.080 208.063 244.400 M246.822 246.960 C 251.014 247.010,257.782 247.010,261.862 246.960 C 265.942 246.909,262.512 246.868,254.240 246.868 C 245.968 246.868,242.630 246.909,246.822 246.960 M86.448 267.200 L 93.793 274.560 113.937 274.560 C 127.152 274.560,134.080 274.450,134.080 274.240 C 134.080 274.030,127.134 273.920,113.882 273.920 L 93.684 273.920 87.002 267.237 C 83.327 263.562,80.320 260.467,80.320 260.359 C 80.320 260.252,92.452 260.126,107.280 260.080 L 134.240 259.996 106.672 259.918 L 79.103 259.840 86.448 267.200 M345.280 265.700 C 345.280 265.755,345.748 266.223,346.320 266.740 L 347.360 267.680 346.420 266.640 C 345.544 265.671,345.280 265.453,345.280 265.700 M359.132 277.600 C 359.134 278.480,359.196 278.802,359.270 278.316 C 359.343 277.829,359.341 277.109,359.265 276.716 C 359.189 276.322,359.129 276.720,359.132 277.600 " stroke="none" fill="#a49caa" fill-rule="evenodd"></path><path id="path7" d="M44.476 58.640 C 46.849 61.060,48.829 63.040,48.876 63.040 C 49.105 63.040,48.647 62.564,44.560 58.556 L 40.160 54.240 44.476 58.640 M323.034 122.240 C 323.034 141.336,323.073 149.148,323.120 139.600 C 323.167 130.052,323.167 114.428,323.120 104.880 C 323.073 95.332,323.034 103.144,323.034 122.240 M94.857 100.320 C 94.857 104.368,94.903 105.980,94.959 103.902 C 95.015 101.824,95.015 98.512,94.959 96.542 C 94.903 94.572,94.857 96.272,94.857 100.320 M240.144 109.920 C 240.144 116.080,240.187 118.555,240.240 115.419 C 240.292 112.284,240.292 107.244,240.239 104.219 C 240.187 101.195,240.144 103.760,240.144 109.920 M309.201 133.600 C 309.204 134.304,309.270 134.554,309.346 134.156 C 309.423 133.758,309.420 133.182,309.340 132.876 C 309.260 132.570,309.197 132.896,309.201 133.600 M6.480 133.360 C 9.780 133.412,15.180 133.412,18.480 133.360 C 21.780 133.308,19.080 133.265,12.480 133.265 C 5.880 133.265,3.180 133.308,6.480 133.360 M297.744 146.006 C 297.659 146.229,297.627 150.009,297.675 154.406 L 297.761 162.400 297.921 154.000 C 298.076 145.784,298.063 145.175,297.744 146.006 M207.767 154.240 C 207.767 155.032,207.830 155.356,207.906 154.960 C 207.982 154.564,207.982 153.916,207.906 153.520 C 207.830 153.124,207.767 153.448,207.767 154.240 M363.520 177.380 C 363.520 177.435,363.988 177.903,364.560 178.420 L 365.600 179.360 364.660 178.320 C 363.784 177.351,363.520 177.133,363.520 177.380 M371.520 185.380 C 371.520 185.435,371.988 185.903,372.560 186.420 L 373.600 187.360 372.660 186.320 C 371.784 185.351,371.520 185.133,371.520 185.380 M211.920 191.279 C 213.988 191.335,217.372 191.335,219.440 191.279 C 221.508 191.223,219.816 191.178,215.680 191.178 C 211.544 191.178,209.852 191.223,211.920 191.279 M359.189 221.760 C 359.189 230.824,359.230 234.532,359.280 230.000 C 359.330 225.468,359.330 218.052,359.280 213.520 C 359.230 208.988,359.189 212.696,359.189 221.760 M148.606 214.240 C 148.607 216.704,148.657 217.670,148.718 216.386 C 148.779 215.102,148.778 213.086,148.717 211.906 C 148.656 210.726,148.606 211.776,148.606 214.240 M148.307 232.320 C 148.307 239.800,148.348 242.860,148.400 239.120 C 148.451 235.380,148.451 229.260,148.400 225.520 C 148.348 221.780,148.307 224.840,148.307 232.320 M208.000 220.144 L 211.680 220.320 211.853 225.280 L 212.025 230.240 212.093 225.424 C 212.175 219.511,212.413 219.822,207.856 219.904 L 204.320 219.968 208.000 220.144 M205.360 231.918 C 206.812 231.977,209.188 231.977,210.640 231.918 C 212.092 231.859,210.904 231.810,208.000 231.810 C 205.096 231.810,203.908 231.859,205.360 231.918 M363.940 238.639 C 366.546 238.693,370.722 238.693,373.220 238.639 C 375.717 238.585,373.584 238.541,368.480 238.541 C 363.376 238.541,361.333 238.586,363.940 238.639 M208.155 283.520 C 208.155 303.672,208.193 311.916,208.240 301.840 C 208.287 291.764,208.287 275.276,208.240 265.200 C 208.193 255.124,208.155 263.368,208.155 283.520 M238.875 283.520 C 238.875 303.672,238.913 311.916,238.960 301.840 C 239.007 291.764,239.007 275.276,238.960 265.200 C 238.913 255.124,238.875 263.368,238.875 283.520 M79.040 260.580 C 79.040 260.635,79.508 261.103,80.080 261.620 L 81.120 262.560 80.180 261.520 C 79.304 260.551,79.040 260.333,79.040 260.580 M73.741 286.494 C 73.654 286.722,73.626 289.062,73.680 291.694 L 73.778 296.480 73.849 291.448 L 73.920 286.416 78.960 286.319 L 84.000 286.223 78.950 286.151 C 75.062 286.096,73.863 286.175,73.741 286.494 M259.025 289.043 C 258.940 289.265,258.911 293.909,258.960 299.363 L 259.050 309.280 259.125 299.125 L 259.200 288.971 267.440 288.880 L 275.680 288.789 267.430 288.714 C 261.036 288.657,259.145 288.731,259.025 289.043 M283.120 288.878 C 284.748 288.936,287.412 288.936,289.040 288.878 C 290.668 288.820,289.336 288.773,286.080 288.773 C 282.824 288.773,281.492 288.820,283.120 288.878 M264.257 290.479 C 266.070 290.536,268.950 290.536,270.657 290.478 C 272.364 290.421,270.880 290.374,267.360 290.374 C 263.840 290.375,262.444 290.422,264.257 290.479 M375.040 295.140 C 375.040 295.195,375.508 295.663,376.080 296.180 L 377.120 297.120 376.180 296.080 C 375.304 295.111,375.040 294.893,375.040 295.140 M377.280 297.380 C 377.280 297.435,377.748 297.903,378.320 298.420 L 379.360 299.360 378.420 298.320 C 377.544 297.351,377.280 297.133,377.280 297.380 M383.040 303.140 C 383.040 303.195,383.508 303.663,384.080 304.180 L 385.120 305.120 384.180 304.080 C 383.304 303.111,383.040 302.893,383.040 303.140 M385.280 305.380 C 385.280 305.435,385.748 305.903,386.320 306.420 L 387.360 307.360 386.420 306.320 C 385.544 305.351,385.280 305.133,385.280 305.380 M37.897 312.960 C 37.897 316.920,37.943 318.540,37.999 316.560 C 38.055 314.580,38.055 311.340,37.999 309.360 C 37.943 307.380,37.897 309.000,37.897 312.960 M333.103 308.400 L 332.000 309.600 333.200 308.497 C 334.317 307.471,334.547 307.200,334.303 307.200 C 334.249 307.200,333.709 307.740,333.103 308.400 M229.759 315.135 L 229.918 320.160 230.008 315.385 C 230.057 312.759,229.986 310.497,229.849 310.360 C 229.712 310.223,229.672 312.371,229.759 315.135 M391.040 311.140 C 391.040 311.195,391.508 311.663,392.080 312.180 L 393.120 313.120 392.180 312.080 C 391.304 311.111,391.040 310.893,391.040 311.140 M393.280 313.380 C 393.280 313.435,393.748 313.903,394.320 314.420 L 395.360 315.360 394.420 314.320 C 393.544 313.351,393.280 313.133,393.280 313.380 M221.204 314.150 C 221.691 314.223,222.411 314.221,222.804 314.145 C 223.198 314.069,222.800 314.009,221.920 314.012 C 221.040 314.014,220.718 314.076,221.204 314.150 M328.081 318.880 C 328.084 319.584,328.150 319.834,328.226 319.436 C 328.303 319.038,328.300 318.462,328.220 318.156 C 328.140 317.850,328.077 318.176,328.081 318.880 M216.714 319.040 C 216.714 319.656,216.780 319.908,216.861 319.600 C 216.941 319.292,216.941 318.788,216.861 318.480 C 216.780 318.172,216.714 318.424,216.714 319.040 " stroke="none" fill="#bcb4bc" fill-rule="evenodd"></path><path id="path8" d="M351.440 53.360 C 360.372 53.407,374.988 53.407,383.920 53.360 C 392.852 53.313,385.544 53.274,367.680 53.274 C 349.816 53.274,342.508 53.313,351.440 53.360 M14.276 54.342 C 14.187 54.486,15.762 56.248,17.777 58.257 C 19.792 60.266,21.440 61.799,21.440 61.663 C 21.440 61.528,19.846 59.840,17.898 57.912 L 14.356 54.407 27.418 54.320 L 40.480 54.233 27.459 54.156 C 20.297 54.114,14.365 54.198,14.276 54.342 M41.920 55.780 C 41.920 55.835,42.388 56.303,42.960 56.820 L 44.000 57.760 43.060 56.720 C 42.184 55.751,41.920 55.533,41.920 55.780 M46.400 60.260 C 46.400 60.315,46.868 60.783,47.440 61.300 L 48.480 62.240 47.540 61.200 C 46.664 60.231,46.400 60.013,46.400 60.260 M49.920 63.780 C 49.920 63.835,50.388 64.303,50.960 64.820 L 52.000 65.760 51.060 64.720 C 50.184 63.751,49.920 63.533,49.920 63.780 M322.773 82.159 C 322.656 91.268,322.561 111.699,322.560 127.563 L 322.560 156.405 321.840 156.598 C 321.444 156.704,320.184 156.798,319.040 156.806 C 316.017 156.828,309.039 157.939,307.360 158.666 C 307.008 158.819,305.640 159.277,304.320 159.685 C 303.000 160.093,301.160 160.763,300.231 161.173 C 299.301 161.584,298.473 161.920,298.391 161.920 C 298.308 161.920,298.240 158.320,298.240 153.920 L 298.240 145.920 299.388 145.920 C 305.585 145.920,310.869 138.014,309.460 130.850 C 308.094 123.909,298.791 118.945,292.960 122.046 C 292.432 122.326,291.886 122.557,291.747 122.558 C 289.953 122.572,285.133 128.771,285.116 131.086 C 285.113 131.413,285.024 132.004,284.918 132.400 L 284.725 133.120 262.690 133.120 L 240.654 133.120 240.556 126.960 L 240.458 120.800 240.469 127.200 L 240.480 133.600 262.876 133.600 L 285.271 133.600 285.516 131.900 C 286.458 125.355,292.696 120.870,299.386 121.927 C 312.410 123.987,312.671 142.523,299.717 145.440 L 298.080 145.808 297.995 154.172 L 297.909 162.535 299.152 162.097 C 299.836 161.856,300.666 161.513,300.998 161.335 C 302.245 160.665,307.142 159.161,311.040 158.252 C 313.581 157.659,318.199 157.126,320.831 157.123 L 322.782 157.120 322.959 111.440 C 323.057 86.316,323.102 65.724,323.061 65.679 C 323.019 65.634,322.889 73.050,322.773 82.159 M26.848 67.110 C 27.497 67.604,53.752 67.704,53.258 67.210 C 53.072 67.024,47.661 66.865,39.642 66.810 C 29.130 66.739,26.443 66.802,26.848 67.110 M94.804 69.030 C 95.291 69.103,96.011 69.101,96.404 69.025 C 96.798 68.949,96.400 68.889,95.520 68.892 C 94.640 68.894,94.318 68.956,94.804 69.030 M86.841 72.400 C 85.896 73.478,85.344 74.240,85.507 74.240 C 85.587 74.240,86.116 73.664,86.682 72.960 C 87.780 71.593,87.891 71.201,86.841 72.400 M106.759 77.280 C 106.873 77.808,107.093 78.456,107.248 78.720 C 107.428 79.027,107.454 78.854,107.321 78.240 C 107.207 77.712,106.987 77.064,106.832 76.800 C 106.652 76.493,106.626 76.666,106.759 77.280 M83.725 77.827 C 83.617 78.230,83.551 79.712,83.577 81.120 L 83.625 83.680 83.834 80.480 C 84.055 77.078,84.038 76.659,83.725 77.827 M107.093 83.093 C 106.976 83.211,106.889 83.607,106.900 83.973 C 106.919 84.586,106.945 84.578,107.227 83.874 C 107.541 83.090,107.476 82.711,107.093 83.093 M90.880 91.947 C 90.880 92.030,91.345 92.259,91.913 92.457 C 92.481 92.655,92.805 92.686,92.633 92.525 C 92.268 92.184,90.880 91.726,90.880 91.947 M98.720 92.331 C 97.920 92.717,97.893 92.761,98.560 92.598 C 99.467 92.376,100.486 91.857,100.000 91.864 C 99.824 91.867,99.248 92.077,98.720 92.331 M95.818 101.120 C 95.818 105.432,95.864 107.196,95.919 105.040 C 95.974 102.884,95.974 99.356,95.919 97.200 C 95.864 95.044,95.818 96.808,95.818 101.120 M10.976 98.798 C 12.524 98.857,14.972 98.857,16.416 98.798 C 17.859 98.739,16.592 98.691,13.600 98.691 C 10.608 98.691,9.427 98.740,10.976 98.798 M147.785 98.800 C 158.930 98.847,177.074 98.847,188.105 98.800 C 199.135 98.753,190.016 98.715,167.840 98.715 C 145.664 98.715,136.639 98.753,147.785 98.800 M228.579 98.799 C 230.833 98.854,234.433 98.854,236.579 98.799 C 238.724 98.744,236.880 98.699,232.480 98.699 C 228.080 98.699,226.324 98.744,228.579 98.799 M0.397 110.107 C 0.355 116.370,0.224 129.726,0.108 139.787 C -0.100 157.672,-0.091 158.079,0.508 158.055 C 0.846 158.041,0.941 157.957,0.720 157.868 C 0.410 157.743,0.320 155.013,0.320 145.733 L 0.320 133.760 12.354 133.760 C 23.381 133.760,24.372 133.804,24.187 134.285 C 24.019 134.723,24.066 134.744,24.469 134.409 C 25.509 133.546,24.215 133.440,12.624 133.440 L 0.646 133.440 0.560 116.080 C 0.494 102.751,0.456 101.364,0.397 110.107 M75.840 99.484 C 76.104 99.635,76.896 99.846,77.600 99.954 C 78.407 100.077,78.644 100.051,78.240 99.883 C 77.304 99.493,75.259 99.154,75.840 99.484 M97.600 110.880 C 98.556 111.848,99.410 112.640,99.498 112.640 C 99.586 112.640,98.876 111.848,97.920 110.880 C 96.964 109.912,96.110 109.120,96.022 109.120 C 95.934 109.120,96.644 109.912,97.600 110.880 M109.760 133.999 L 127.360 134.085 127.360 171.865 L 127.360 209.644 124.720 209.439 C 123.268 209.326,121.720 209.112,121.280 208.964 C 120.840 208.817,119.773 208.531,118.910 208.331 C 116.966 207.879,112.729 205.991,110.451 204.562 C 108.395 203.273,108.347 203.235,105.655 200.749 C 102.663 197.988,100.427 196.251,98.647 195.307 C 97.807 194.862,96.760 194.301,96.320 194.062 C 94.509 193.076,92.543 192.390,90.956 192.190 C 90.030 192.073,89.022 191.899,88.716 191.804 C 88.258 191.662,88.245 191.686,88.640 191.940 C 88.904 192.109,89.768 192.353,90.560 192.482 C 92.450 192.789,95.651 194.075,98.240 195.568 C 100.322 196.769,101.805 197.934,106.468 202.029 C 111.928 206.826,120.269 210.184,125.904 209.854 L 127.520 209.760 127.520 171.840 L 127.520 133.920 109.840 133.916 L 92.160 133.912 109.760 133.999 M285.335 137.245 C 285.029 138.777,285.067 170.170,285.376 170.360 C 285.517 170.447,286.273 170.009,287.056 169.387 C 288.844 167.967,291.005 166.531,294.080 164.720 L 296.480 163.307 296.480 154.558 L 296.480 145.808 294.880 145.441 C 290.590 144.454,286.789 140.822,285.676 136.645 C 285.607 136.384,285.453 136.654,285.335 137.245 M289.012 142.804 C 290.082 143.818,291.327 144.740,291.778 144.853 C 292.228 144.966,292.967 145.252,293.419 145.487 C 293.870 145.723,294.708 145.917,295.280 145.918 L 296.320 145.920 296.315 154.320 C 296.310 163.705,296.461 163.033,294.077 164.279 C 291.828 165.455,287.040 168.625,287.040 168.938 C 287.040 169.070,286.680 169.341,286.240 169.542 L 285.440 169.906 285.443 153.673 L 285.446 137.440 286.256 139.200 C 286.767 140.310,287.785 141.641,289.012 142.804 M240.320 150.237 L 240.320 155.514 224.080 155.600 L 207.840 155.686 224.240 155.763 L 240.640 155.840 240.640 150.400 C 240.640 147.408,240.568 144.960,240.480 144.960 C 240.392 144.960,240.320 147.335,240.320 150.237 M353.613 182.880 C 349.500 187.016,346.220 190.487,346.326 190.593 C 346.432 190.699,349.891 187.401,354.013 183.264 L 361.507 175.742 369.154 183.398 L 376.800 191.054 361.200 190.967 C 352.620 190.919,345.600 190.962,345.600 191.063 C 345.600 191.163,348.696 194.352,352.480 198.148 C 356.264 201.944,359.360 204.956,359.360 204.842 C 359.360 204.728,356.480 201.757,352.960 198.240 C 349.440 194.723,346.560 191.715,346.560 191.554 C 346.560 191.380,357.279 191.321,373.200 191.408 C 387.852 191.487,394.800 191.507,388.640 191.452 L 377.440 191.352 369.520 183.356 C 365.164 178.958,361.486 175.360,361.347 175.360 C 361.207 175.360,357.727 178.744,353.613 182.880 M49.280 241.183 L 49.280 291.326 48.465 289.689 C 44.378 281.489,32.166 281.887,28.301 290.348 C 25.508 296.462,30.442 305.920,36.425 305.920 C 37.117 305.920,37.120 305.953,37.120 312.781 C 37.120 317.010,37.243 319.718,37.440 319.840 C 37.650 319.970,37.760 317.564,37.760 312.860 L 37.760 305.682 36.451 305.472 C 26.421 303.869,24.866 289.473,34.240 285.006 C 39.562 282.470,48.931 286.884,48.957 291.939 C 48.959 292.257,49.104 292.429,49.280 292.320 C 49.490 292.190,49.600 281.783,49.600 262.141 C 49.600 245.652,49.696 222.975,49.813 211.748 L 50.025 191.336 68.554 191.428 C 78.744 191.479,86.749 191.426,86.341 191.312 C 85.933 191.197,77.428 191.089,67.440 191.072 L 49.280 191.040 49.280 241.183 M192.640 204.880 L 192.800 218.720 192.883 205.046 L 192.967 191.371 200.723 191.280 L 208.480 191.188 200.480 191.114 L 192.480 191.040 192.640 204.880 M223.165 213.840 C 223.289 226.204,223.292 237.505,223.170 238.954 L 222.949 241.589 215.276 241.674 L 207.602 241.760 207.659 280.792 C 207.691 302.259,207.780 319.887,207.858 319.965 C 207.936 320.043,208.000 302.515,208.000 281.013 L 208.000 241.920 215.334 241.920 C 219.367 241.920,222.895 241.833,223.174 241.726 C 223.829 241.474,223.964 191.360,223.309 191.360 C 223.030 191.360,222.995 196.892,223.165 213.840 M148.633 246.400 C 148.633 261.800,148.672 268.100,148.720 260.400 C 148.768 252.700,148.768 240.100,148.720 232.400 C 148.672 224.700,148.633 231.000,148.633 246.400 M202.394 218.960 C 202.314 219.180,202.283 222.240,202.324 225.760 L 202.400 232.160 207.840 232.160 L 213.280 232.160 213.366 225.360 L 213.453 218.560 207.996 218.560 C 203.922 218.560,202.503 218.661,202.394 218.960 M213.120 225.440 L 213.120 232.000 208.000 232.000 L 202.880 232.000 202.880 225.440 L 202.880 218.880 208.000 218.880 L 213.120 218.880 213.120 225.440 M204.063 220.364 C 203.749 220.677,203.793 229.831,204.111 230.331 C 204.304 230.636,205.317 230.718,208.026 230.651 L 211.680 230.560 211.680 225.440 L 211.680 220.320 207.983 220.230 C 205.950 220.181,204.186 220.241,204.063 220.364 M211.520 225.280 L 211.520 230.080 208.000 230.080 L 204.480 230.080 204.480 225.280 L 204.480 220.480 208.000 220.480 L 211.520 220.480 211.520 225.280 M369.760 238.402 C 381.260 238.660,400.177 238.784,399.973 238.599 C 399.900 238.533,390.768 238.410,379.680 238.325 C 366.814 238.228,363.225 238.255,369.760 238.402 M269.973 246.613 C 269.856 246.731,269.760 252.851,269.760 260.213 L 269.760 273.600 271.040 273.600 C 272.616 273.600,272.621 273.728,271.120 275.347 L 269.920 276.640 271.280 275.375 C 273.007 273.769,273.025 273.280,271.360 273.280 L 270.080 273.280 270.080 260.006 L 270.080 246.732 277.520 246.640 L 284.960 246.548 277.573 246.474 C 273.511 246.433,270.091 246.496,269.973 246.613 M293.269 247.034 C 297.663 247.175,302.271 247.368,303.509 247.462 C 305.359 247.603,305.532 247.580,304.480 247.332 C 303.776 247.166,299.168 246.973,294.240 246.904 L 285.280 246.776 293.269 247.034 M306.940 247.836 C 307.193 248.102,311.736 249.010,311.916 248.831 C 311.981 248.766,311.343 248.559,310.497 248.371 C 307.692 247.749,306.718 247.603,306.940 247.836 M313.120 249.219 C 313.296 249.386,314.016 249.609,314.720 249.716 C 315.533 249.839,315.767 249.812,315.360 249.642 C 314.219 249.166,312.777 248.893,313.120 249.219 M317.315 250.396 C 317.863 250.643,318.727 250.932,319.235 251.039 L 320.160 251.232 319.200 250.788 C 318.672 250.544,317.808 250.255,317.280 250.145 L 316.320 249.947 317.315 250.396 M320.320 251.368 C 320.320 251.555,321.339 251.968,322.560 252.277 C 323.000 252.388,322.784 252.202,322.080 251.863 C 320.721 251.209,320.320 251.097,320.320 251.368 M323.696 252.764 C 323.863 252.920,324.360 253.142,324.800 253.257 L 325.600 253.467 324.800 252.985 C 323.908 252.447,323.207 252.307,323.696 252.764 M326.400 253.920 C 326.840 254.172,327.344 254.377,327.520 254.377 C 327.696 254.377,327.480 254.172,327.040 253.920 C 326.600 253.668,326.096 253.463,325.920 253.463 C 325.744 253.463,325.960 253.668,326.400 253.920 M330.562 255.902 C 330.565 256.165,332.196 257.031,332.367 256.860 C 332.418 256.808,332.033 256.514,331.510 256.205 C 330.988 255.896,330.561 255.760,330.562 255.902 M338.240 260.580 C 338.240 260.659,338.769 261.127,339.415 261.620 C 340.061 262.113,340.489 262.353,340.365 262.153 C 340.112 261.743,338.240 260.358,338.240 260.580 M80.408 262.240 C 81.248 263.082,82.005 263.702,82.090 263.617 C 82.174 263.532,81.487 262.843,80.562 262.086 L 78.880 260.708 80.408 262.240 M83.712 265.600 C 84.565 266.480,85.372 267.200,85.505 267.200 C 85.637 267.200,85.059 266.480,84.220 265.600 C 83.380 264.720,82.573 264.000,82.426 264.000 C 82.280 264.000,82.858 264.720,83.712 265.600 M344.000 265.200 C 344.000 265.332,344.540 265.859,345.200 266.371 L 346.400 267.302 345.297 266.131 C 344.146 264.909,344.000 264.804,344.000 265.200 M372.853 293.688 C 387.275 308.072,399.247 319.884,399.457 319.937 C 399.930 320.058,347.937 268.235,347.178 267.828 C 346.878 267.668,358.432 279.304,372.853 293.688 M87.044 268.607 C 87.042 268.764,88.372 270.204,90.000 271.807 L 92.960 274.720 93.124 297.440 L 93.288 320.160 93.364 297.471 L 93.440 274.781 90.244 271.551 C 88.486 269.774,87.046 268.449,87.044 268.607 M256.960 273.496 C 261.248 273.728,265.601 273.740,265.601 273.520 C 265.600 273.388,263.260 273.307,260.400 273.341 C 257.540 273.374,255.992 273.444,256.960 273.496 M275.028 278.800 L 269.600 284.320 273.097 284.411 C 275.922 284.485,276.676 284.409,277.018 284.013 C 277.251 283.743,277.269 283.666,277.057 283.841 C 276.611 284.211,270.400 284.281,270.400 283.916 C 270.400 283.782,272.668 281.410,275.440 278.645 L 280.480 273.618 284.000 273.517 L 287.520 273.416 283.988 273.348 L 280.455 273.280 275.028 278.800 M294.609 273.520 C 294.526 273.652,296.030 273.715,297.950 273.660 C 299.869 273.605,301.440 273.679,301.440 273.824 C 301.440 273.969,299.161 276.364,296.375 279.145 L 291.309 284.203 287.894 284.102 C 286.016 284.046,284.479 284.108,284.479 284.240 C 284.480 284.372,286.068 284.480,288.008 284.480 L 291.536 284.480 296.648 279.381 C 299.460 276.577,301.760 274.057,301.760 273.781 C 301.760 273.244,294.935 272.995,294.609 273.520 M64.394 297.200 C 64.435 309.828,64.507 316.488,64.554 312.000 C 64.775 290.788,64.778 274.240,64.560 274.240 C 64.428 274.240,64.353 284.572,64.394 297.200 M265.274 281.134 L 262.240 284.188 258.639 284.094 L 255.039 284.000 255.117 302.080 L 255.195 320.160 255.280 302.320 L 255.365 284.480 258.809 284.480 L 262.252 284.480 265.440 281.280 C 267.193 279.520,268.556 278.080,268.468 278.080 C 268.380 278.080,266.942 279.454,265.274 281.134 M73.280 291.360 L 73.280 296.975 78.800 296.888 L 84.320 296.800 84.320 291.360 L 84.320 285.920 78.800 285.832 L 73.280 285.745 73.280 291.360 M83.840 291.200 L 83.840 296.320 78.720 296.320 L 73.600 296.320 73.600 291.413 C 73.600 288.715,73.696 286.411,73.813 286.293 C 73.931 286.176,76.235 286.080,78.933 286.080 L 83.840 286.080 83.840 291.200 M258.949 288.699 C 258.660 288.988,258.560 291.734,258.560 299.418 L 258.560 309.748 259.280 309.924 C 259.676 310.021,263.600 310.060,268.000 310.010 L 276.000 309.920 276.000 299.200 L 276.000 288.480 267.669 288.395 C 261.458 288.331,259.239 288.409,258.949 288.699 M279.751 288.697 C 279.249 289.199,279.177 320.000,279.677 320.000 C 279.881 320.000,280.024 314.431,280.077 304.400 L 280.160 288.800 286.080 288.800 L 292.000 288.800 292.166 304.480 L 292.332 320.160 292.326 304.320 L 292.320 288.480 286.231 288.393 C 281.764 288.330,280.037 288.411,279.751 288.697 M275.680 299.200 L 275.680 309.600 267.542 309.686 C 261.245 309.752,259.346 309.679,259.147 309.366 C 258.835 308.874,258.789 289.158,259.099 288.848 C 259.219 288.728,262.999 288.668,267.499 288.715 L 275.680 288.800 275.680 299.200 M260.875 299.274 L 260.949 308.000 261.040 299.440 L 261.130 290.880 267.365 290.880 L 273.600 290.880 273.600 299.360 C 273.600 304.891,273.713 307.840,273.925 307.840 C 274.140 307.840,274.221 304.921,274.165 299.280 L 274.080 290.720 267.440 290.634 L 260.800 290.547 260.875 299.274 M281.677 305.351 L 281.753 320.160 281.840 305.520 L 281.926 290.880 286.080 290.880 L 290.234 290.880 290.322 305.440 L 290.410 320.000 290.405 305.360 L 290.400 290.720 286.000 290.631 L 281.600 290.542 281.677 305.351 M48.504 298.898 C 47.386 302.010,44.290 304.638,40.800 305.440 L 39.200 305.808 39.114 312.904 C 39.057 317.566,39.140 320.000,39.354 320.000 C 39.565 320.000,39.680 317.528,39.680 312.960 L 39.680 305.920 40.560 305.920 C 43.085 305.919,47.324 302.684,48.655 299.741 L 49.261 298.400 49.355 309.280 L 49.449 320.160 49.524 308.899 C 49.602 297.322,49.485 296.172,48.504 298.898 M340.395 303.995 C 333.912 305.723,328.704 310.999,328.154 316.394 L 327.999 317.920 328.461 316.129 C 332.684 299.763,356.923 300.268,360.646 316.800 C 361.263 319.539,361.620 320.440,361.469 318.880 C 360.898 312.971,357.529 308.147,351.823 305.068 C 348.928 303.505,343.976 303.040,340.395 303.995 M224.213 310.293 C 224.096 310.411,224.000 311.272,224.000 312.207 C 224.000 314.083,223.971 314.107,221.280 314.341 C 220.057 314.447,220.069 314.455,221.541 314.506 C 223.890 314.588,224.320 314.225,224.320 312.162 L 224.320 310.426 226.960 310.318 L 229.600 310.210 227.013 310.145 C 225.591 310.109,224.331 310.176,224.213 310.293 M218.480 317.675 C 216.984 317.793,216.960 317.812,216.960 318.898 C 216.960 319.504,217.104 320.000,217.280 320.000 C 217.456 320.000,217.600 319.568,217.600 319.040 C 217.600 318.159,217.691 318.080,218.701 318.080 C 219.307 318.080,219.891 317.936,220.000 317.760 C 220.109 317.584,220.153 317.466,220.099 317.498 C 220.044 317.529,219.316 317.609,218.480 317.675 M327.754 319.040 C 327.754 319.656,327.820 319.908,327.901 319.600 C 327.981 319.292,327.981 318.788,327.901 318.480 C 327.820 318.172,327.754 318.424,327.754 319.040 " stroke="none" fill="#bcbcbc" fill-rule="evenodd"></path></g></svg>